<svg width="151" height="287" viewBox="0 0 151 287" fill="none" xmlns="http://www.w3.org/2000/svg">
<path d="M18.6371 126.684C21.369 90.3784 9.7463 77.64 19.5372 49.9532C21.7638 43.6392 27.8594 27.065 43.6512 14.8949C61.4643 1.17774 88.2628 -4.28384 111.556 7.31808C141.118 22.077 153.704 58.777 149.061 84.9958C144.118 113.014 128.911 116.828 128.5 141.5C128.074 167.261 145.066 171.908 147.277 199.626C149.961 234.353 114.919 261.74 110.656 264.991C91.058 279.94 52.5893 296.561 25.8223 277.304C-2.82393 256.783 0.650255 208.639 1.7083 193.943C4.04548 160.906 15.9682 162.2 18.6371 126.684Z" fill="#F0EFEF" stroke="#4D4D4D" stroke-miterlimit="10"/>
<path d="M26.3434 125.421C28.7438 90.6941 18.4476 78.4765 27.1172 51.9894C29.0912 45.9596 34.4604 30.0799 48.3729 18.4306C64.0699 5.29757 87.6786 0.0727601 108.16 11.1854C134.217 25.2182 145.271 60.3554 141.213 85.4535C136.854 112.288 122.863 114.902 122.5 138.5C122.137 163.156 137.754 168.624 139.633 195.159C142.002 228.307 111.129 254.605 107.387 257.714C90.1105 272.016 56.2214 287.911 32.6285 269.49C7.36175 249.806 10.5201 203.777 11.3887 189.713C13.4732 158.096 23.9747 159.327 26.3434 125.421Z" fill="#B2DFDB"/>
</svg>
