<svg width="155" height="295" viewBox="0 0 155 295" fill="none" xmlns="http://www.w3.org/2000/svg">
<path d="M19.1752 130.189C21.9852 92.8292 10.0252 79.7567 20.0952 51.2948C22.3852 44.8235 28.6552 27.7564 44.9052 15.2631C63.2452 1.16205 90.8152 -4.41048 114.745 7.48358C145.155 22.6532 158.115 60.4126 153.345 87.3765C148.245 116.168 125.275 119.473 124.855 144.829C124.415 171.314 149.295 176.727 151.505 205.208C154.255 240.831 118.205 269.073 113.825 272.408C93.6452 287.778 54.0752 304.845 26.5252 285.071C-2.9348 263.87 0.625195 214.426 1.74519 199.316C4.16519 165.362 16.4252 166.69 19.1752 130.189Z" fill="#F0EFEF" stroke="#4D4D4D" stroke-miterlimit="10"/>
<path d="M27.0953 128.801C29.5753 93.0488 19.0353 80.5456 27.9053 53.3121C29.9053 47.1104 35.4553 30.7923 49.7653 18.8283C65.9253 5.32644 90.2053 -0.0563483 111.295 11.3683C138.085 25.8889 149.495 61.9905 145.295 87.7959C140.805 115.349 120.565 118.515 120.195 142.782C119.815 168.128 141.735 173.311 143.675 200.575C146.105 234.659 114.335 261.693 110.485 264.878C92.7453 279.599 57.8453 295.927 33.5753 277.002C7.61528 256.749 10.7453 209.433 11.7453 194.982C13.8653 162.476 24.6753 163.744 27.0953 128.801Z" fill="#B2DFDB"/>
<path d="M46.2851 130.409C46.7167 131.868 47.2479 133.296 47.8751 134.683C48.6551 136.441 50.5651 138.678 52.1851 139.117C52.3769 139.189 52.5823 139.217 52.7864 139.2C52.9905 139.183 53.1882 139.12 53.3651 139.017C53.4483 138.956 53.5141 138.874 53.5562 138.779C53.5982 138.685 53.6151 138.581 53.6051 138.478C53.6051 136.93 51.1451 133.585 49.2551 132.216C48.2984 131.545 47.296 130.941 46.2551 130.409H46.2851ZM56.5051 122.04C56.3851 122.04 56.2051 122.26 56.0851 122.899C55.48 126.245 55.5208 129.675 56.2051 133.005C56.923 136.012 57.8862 138.954 59.0851 141.804C60.6551 139.626 60.6251 135.921 60.3951 133.495C59.8051 127.413 57.3951 122.08 56.5051 122.04ZM59.5751 144.52C59.3451 143.981 59.1251 143.431 58.8951 142.882C58.3332 143.411 57.6444 143.785 56.8951 143.971C54.8814 144.369 52.7913 144.032 51.0051 143.022C47.4004 141.091 44.4417 138.146 42.4951 134.553C41.7624 133.262 41.2392 131.863 40.9451 130.409C40.7851 129.56 40.9451 128.981 41.4351 128.671C42.2551 128.152 43.8351 128.601 45.4351 129.32C44.8335 127.161 44.8335 124.878 45.4351 122.719C45.4911 122.496 45.6074 122.292 45.7714 122.13C45.9353 121.968 46.1407 121.854 46.3651 121.8C48.1951 121.361 51.6851 124.696 52.3651 125.366C52.4195 125.42 52.45 125.493 52.45 125.57C52.45 125.647 52.4195 125.721 52.3651 125.775C52.339 125.802 52.3079 125.823 52.2736 125.837C52.2392 125.852 52.2024 125.859 52.1651 125.859C52.1278 125.859 52.091 125.852 52.0566 125.837C52.0223 125.823 51.9912 125.802 51.9651 125.775C50.1051 123.947 47.6051 122.09 46.4951 122.36C46.3661 122.391 46.2488 122.458 46.1567 122.554C46.0647 122.649 46.0017 122.769 45.9751 122.899C45.3609 125.108 45.3886 127.446 46.0551 129.64C47.2737 130.254 48.4467 130.955 49.5651 131.737C51.4051 133.065 54.1951 136.61 54.1551 138.478C54.1628 138.673 54.1209 138.867 54.0335 139.041C53.9461 139.216 53.8159 139.366 53.6551 139.477C53.4072 139.628 53.1285 139.722 52.8394 139.751C52.5504 139.781 52.2584 139.745 51.9851 139.646C50.2251 139.127 48.1451 136.77 47.3151 134.903C46.607 133.329 46.0219 131.703 45.5651 130.039C43.9351 129.25 42.3551 128.751 41.7151 129.15C41.4451 129.33 41.3651 129.71 41.4751 130.299C41.755 131.697 42.2473 133.044 42.9351 134.294C44.8218 137.785 47.6941 140.647 51.1951 142.523C52.8835 143.46 54.8505 143.768 56.7451 143.391C57.5068 143.221 58.202 142.833 58.7451 142.273C57.4932 139.305 56.4898 136.239 55.7451 133.105C55.0426 129.696 54.9985 126.185 55.6151 122.759C55.7951 121.86 56.1351 121.411 56.6151 121.431C58.3051 121.521 60.5451 128.252 61.0451 133.415C61.4451 137.559 60.8751 140.625 59.4151 142.403C59.6651 143.042 59.9251 143.671 60.1851 144.29C60.8151 145.988 60.2751 146.198 59.5751 144.48V144.52Z" fill="#C16A8C"/>
<path d="M47.7452 226.979C47.7036 227.106 47.6735 227.236 47.6552 227.369C47.6113 227.866 47.6782 228.366 47.8511 228.834C48.0241 229.302 48.2987 229.726 48.6552 230.075C48.7295 230.14 48.8203 230.182 48.9174 230.198C49.0146 230.214 49.1142 230.203 49.2052 230.165C49.2816 230.111 49.3434 230.039 49.3852 229.955C49.4271 229.872 49.4477 229.779 49.4452 229.686C49.4296 229.215 49.3071 228.753 49.0871 228.337C48.8672 227.92 48.5554 227.558 48.1752 227.279C48.0274 227.16 47.8702 227.053 47.7052 226.959L47.7452 226.979ZM57.2352 232.092C56.2991 231.844 55.312 231.861 54.3852 232.142C54.1452 232.262 54.1352 232.392 54.1352 232.442C54.1298 232.505 54.1408 232.569 54.167 232.626C54.1933 232.684 54.234 232.734 54.2852 232.772C54.5135 232.911 54.7674 233.003 55.0319 233.042C55.2964 233.082 55.5662 233.068 55.8252 233.001C56.3722 232.838 56.8614 232.523 57.2352 232.092ZM50.9452 233.65C50.3677 233.849 49.8511 234.193 49.4452 234.649C48.8283 235.418 48.3849 236.31 48.1452 237.265C49.4575 237.528 50.8143 237.463 52.0952 237.076C52.5457 236.911 52.9357 236.614 53.2141 236.223C53.4925 235.833 53.6463 235.368 53.6552 234.889C53.6415 234.562 53.5158 234.25 53.2992 234.004C53.0826 233.759 52.7882 233.595 52.4652 233.54C51.9482 233.411 51.4038 233.442 50.9052 233.63L50.9452 233.65ZM50.8352 238.963C50.6752 239.013 50.6652 239.113 50.6652 239.153C50.6633 239.263 50.6873 239.373 50.7352 239.473C50.9695 239.946 51.3095 240.36 51.729 240.682C52.1486 241.004 52.6365 241.226 53.1552 241.33C53.1638 241.112 53.1471 240.895 53.1052 240.681C53.0216 240.205 52.7779 239.771 52.4143 239.451C52.0508 239.132 51.589 238.946 51.1052 238.923C51.0291 238.91 50.9513 238.91 50.8752 238.923L50.8352 238.963ZM53.1152 241.69C52.5336 241.576 51.9863 241.329 51.5162 240.968C51.046 240.608 50.6658 240.144 50.4052 239.612C50.3327 239.456 50.3017 239.284 50.3152 239.113C50.3152 238.923 50.4552 238.604 51.0452 238.574C51.6147 238.583 52.164 238.786 52.6022 239.149C53.0405 239.512 53.3414 240.014 53.4552 240.571C53.4906 240.84 53.4906 241.111 53.4552 241.38H53.5652C54.1739 241.543 54.8097 241.578 55.4327 241.483C56.0557 241.389 56.6523 241.167 57.1852 240.831C57.4669 240.62 57.7013 240.354 57.8736 240.048C58.0458 239.741 58.152 239.403 58.1852 239.053C58.2163 238.801 58.1921 238.546 58.1144 238.305C58.0367 238.063 57.9073 237.841 57.7352 237.655L57.4752 237.375H57.8552C58.2822 237.351 58.7 237.242 59.0845 237.055C59.4691 236.869 59.8126 236.607 60.0952 236.287C60.2787 236.082 60.4178 235.841 60.5039 235.58C60.5899 235.319 60.621 235.043 60.5952 234.769C60.4815 234.293 60.2601 233.849 59.9481 233.472C59.6361 233.094 59.2418 232.793 58.7952 232.592C58.4244 232.396 58.0317 232.245 57.6252 232.142C57.1905 232.702 56.5878 233.108 55.9052 233.301C55.593 233.383 55.2671 233.398 54.9484 233.347C54.6298 233.295 54.3255 233.177 54.0552 233.001C53.9614 232.927 53.8876 232.831 53.8404 232.721C53.7933 232.611 53.7743 232.491 53.7852 232.372C53.7985 232.246 53.8454 232.126 53.921 232.024C53.9966 231.922 54.0982 231.842 54.2152 231.793C55.2839 231.465 56.4266 231.465 57.4952 231.793C57.9705 231.276 58.3106 230.65 58.485 229.971C58.6595 229.291 58.663 228.579 58.4952 227.898C58.3571 227.542 58.1407 227.222 57.8621 226.961C57.5834 226.7 57.2496 226.505 56.8852 226.39C56.619 226.287 56.3319 226.25 56.0483 226.281C55.7646 226.313 55.4926 226.412 55.2552 226.57L54.9752 226.75V226.42C54.9217 225.89 54.6933 225.392 54.3259 225.005C53.9584 224.618 53.4728 224.364 52.9452 224.283C51.8685 224.106 50.7638 224.304 49.8152 224.842C48.9687 225.22 48.2671 225.861 47.8152 226.67C48.0068 226.78 48.1906 226.904 48.3652 227.039C48.7929 227.349 49.1428 227.754 49.3874 228.222C49.6321 228.69 49.7648 229.208 49.7752 229.736C49.7749 229.888 49.7352 230.038 49.6598 230.171C49.5845 230.304 49.4762 230.416 49.3452 230.495C49.1995 230.568 49.0355 230.596 48.8737 230.576C48.7118 230.557 48.5593 230.49 48.4352 230.385C48.0214 230.009 47.699 229.544 47.4928 229.024C47.2865 228.505 47.2018 227.946 47.2452 227.389C47.2735 227.216 47.3136 227.046 47.3652 226.879C46.671 226.515 45.869 226.413 45.1052 226.59C44.8219 226.679 44.5593 226.825 44.3327 227.017C44.106 227.209 43.9199 227.444 43.7852 227.708C43.6814 227.905 43.6189 228.121 43.6017 228.342C43.5845 228.564 43.613 228.786 43.6852 228.997L43.7652 229.206H43.5452C43.0303 229.304 42.5562 229.552 42.1838 229.921C41.8114 230.289 41.5577 230.76 41.4552 231.274C41.361 231.797 41.3792 232.335 41.5085 232.852C41.6378 233.368 41.8752 233.851 42.2052 234.27C42.8782 235.13 43.7497 235.815 44.7452 236.267C45.7008 236.72 46.7083 237.056 47.7452 237.265C47.9765 236.239 48.4343 235.277 49.0852 234.449C49.5017 233.954 50.0465 233.582 50.6601 233.374C51.2738 233.166 51.9327 233.13 52.5652 233.271C52.9599 233.348 53.3171 233.556 53.5799 233.86C53.8427 234.164 53.996 234.547 54.0152 234.949C54.0015 235.502 53.8216 236.039 53.4989 236.49C53.1762 236.94 52.7255 237.283 52.2052 237.475C50.8592 237.88 49.434 237.949 48.0552 237.675C48.0552 237.825 47.9852 237.975 47.9552 238.114C47.5803 239.742 47.3164 241.394 47.1652 243.058C47.3379 242.999 47.5052 242.926 47.6652 242.838L47.7952 242.768L47.8852 242.888C48.3256 243.667 49.0375 244.257 49.8852 244.546C50.3156 244.582 50.7483 244.51 51.1433 244.336C51.5383 244.161 51.8829 243.89 52.1452 243.547C52.5884 243.041 52.8917 242.428 53.0252 241.769L53.1152 241.69ZM36.6552 246.992C36.5452 246.992 36.5352 247.082 36.5352 247.102C36.4052 247.961 41.0652 251.466 44.5352 253.703C43.9533 252.509 43.2097 251.4 42.3252 250.408C40.8952 248.83 37.7852 246.673 36.6552 246.982V246.992ZM48.6052 257.428C49.753 261.343 51.5148 265.05 53.8252 268.414C54.1252 268.853 54.4152 268.993 54.5252 268.953C54.6252 268.953 54.6952 268.693 54.6352 268.274C54.5109 267.317 54.2829 266.376 53.9552 265.468C53.2741 263.628 52.3201 261.901 51.1252 260.345C50.3538 259.306 49.5118 258.322 48.6052 257.399V257.428ZM54.4552 270.92C54.4304 270.933 54.403 270.939 54.3752 270.939C54.3475 270.939 54.3201 270.933 54.2952 270.92C52.0835 269.4 50.2305 267.417 48.8652 265.108C47.6664 262.906 46.7653 260.556 46.1852 258.118L46.0152 257.518C45.7156 256.427 45.3276 255.361 44.8552 254.333L44.5852 254.153C44.5052 254.103 35.9552 248.65 36.1852 247.082C36.2024 246.983 36.25 246.891 36.3217 246.819C36.3933 246.748 36.4854 246.7 36.5852 246.683C37.9952 246.293 41.2852 248.74 42.5852 250.208C43.614 251.371 44.4633 252.68 45.1052 254.093C46.0889 254.732 47.0187 255.45 47.8852 256.24C46.9145 252.381 46.5302 248.399 46.7452 244.426C46.7452 244.106 46.7452 243.777 46.8152 243.427C45.996 243.59 45.1454 243.46 44.413 243.058C43.6807 242.657 43.1135 242.011 42.8113 241.233C42.5091 240.455 42.4912 239.596 42.7608 238.806C43.0304 238.017 43.5702 237.347 44.2852 236.916C44.325 236.892 44.3726 236.885 44.4176 236.896C44.4627 236.908 44.5014 236.936 44.5252 236.976C44.5491 237.016 44.5562 237.063 44.5449 237.108C44.5337 237.153 44.505 237.192 44.4652 237.216C43.7772 237.679 43.2852 238.38 43.084 239.184C42.8827 239.988 42.9865 240.838 43.3752 241.57C43.7402 242.134 44.2648 242.578 44.8825 242.845C45.5003 243.111 46.1833 243.189 46.8452 243.068C46.9932 241.346 47.2639 239.638 47.6552 237.955C47.6552 237.815 47.7152 237.675 47.7552 237.525C46.6847 237.321 45.6436 236.985 44.6552 236.526C43.6001 236.063 42.6761 235.346 41.9652 234.439C41.6031 233.977 41.3435 233.444 41.2039 232.874C41.0642 232.304 41.0476 231.711 41.1552 231.134C41.2709 230.585 41.5385 230.08 41.9274 229.676C42.3163 229.271 42.811 228.984 43.3552 228.847C43.2506 228.384 43.3144 227.899 43.5352 227.479C43.6861 227.168 43.9 226.892 44.1634 226.669C44.4268 226.445 44.7339 226.279 45.0652 226.18C45.9056 225.962 46.7973 226.065 47.5652 226.47C48.0407 225.592 48.788 224.891 49.6952 224.473C50.7124 223.882 51.9075 223.673 53.0652 223.883C53.6068 223.996 54.1032 224.266 54.4926 224.658C54.882 225.05 55.1472 225.549 55.2552 226.09C55.7862 225.843 56.3932 225.814 56.9452 226.011C57.3599 226.152 57.7372 226.386 58.0489 226.694C58.3606 227.001 58.5986 227.376 58.7452 227.788C58.9482 228.492 58.9713 229.236 58.8123 229.951C58.6534 230.666 58.3174 231.33 57.8352 231.883C58.2189 231.992 58.5908 232.139 58.9452 232.322C59.4431 232.551 59.8821 232.89 60.2287 233.314C60.5753 233.738 60.8204 234.236 60.9452 234.769C60.9774 235.09 60.9415 235.414 60.8399 235.72C60.7382 236.027 60.5731 236.308 60.3552 236.546C59.7998 237.181 59.039 237.602 58.2052 237.735C58.4697 238.154 58.5859 238.65 58.5352 239.143C58.4968 239.532 58.3805 239.909 58.1933 240.252C58.006 240.595 57.7516 240.897 57.4452 241.14C56.87 241.504 56.2265 241.746 55.5542 241.853C54.8819 241.959 54.1948 241.928 53.5352 241.759H53.4552C53.2997 242.479 52.9545 243.145 52.4552 243.687C52.1589 244.082 51.7663 244.395 51.3147 244.596C50.8631 244.797 50.3676 244.879 49.8752 244.835C48.9834 244.561 48.2248 243.967 47.7452 243.168C47.5662 243.256 47.3786 243.327 47.1852 243.377C47.1852 243.737 47.1252 244.086 47.1052 244.446C46.8909 248.588 47.3364 252.737 48.4252 256.739C49.5118 257.803 50.5147 258.948 51.4252 260.165C52.6406 261.749 53.6114 263.506 54.3052 265.378C54.6384 266.31 54.873 267.273 55.0052 268.254C55.1052 268.983 54.8752 269.253 54.6752 269.313C54.4752 269.372 53.9252 269.173 53.5552 268.643C51.099 265.066 49.2603 261.103 48.1152 256.919C47.2773 256.103 46.378 255.351 45.4252 254.672C45.7988 255.557 46.1161 256.464 46.3752 257.389L46.5452 257.988C47.1141 260.401 48.0019 262.729 49.1852 264.908C50.5254 267.174 52.3444 269.12 54.5152 270.611C54.5523 270.637 54.5781 270.676 54.5874 270.721C54.5967 270.765 54.5888 270.812 54.5652 270.85C54.5436 270.883 54.512 270.907 54.4752 270.92H54.4552Z" fill="#BA225C"/>
<path d="M104.035 187.233C103.687 187.221 103.343 187.3 103.035 187.462C102.862 187.569 102.718 187.715 102.613 187.889C102.509 188.063 102.448 188.259 102.435 188.461C102.417 188.586 102.43 188.714 102.474 188.832C102.517 188.951 102.59 189.057 102.685 189.14C103.034 189.348 103.444 189.425 103.845 189.36C104.986 189.381 106.099 189.007 106.995 188.301C106.464 187.957 105.889 187.684 105.285 187.492C104.87 187.344 104.435 187.263 103.995 187.253L104.035 187.233ZM104.955 185.065H104.885C103.075 185.115 99.6549 186.524 99.5149 188.691C99.5209 189.125 99.6451 189.55 99.8741 189.919C100.103 190.288 100.428 190.589 100.815 190.788C101.653 191.202 102.581 191.401 103.515 191.367C105.318 191.499 107.113 191.024 108.615 190.019L108.805 189.869C108.417 189.405 107.981 188.983 107.505 188.611C106.506 189.464 105.23 189.925 103.915 189.909C103.374 189.987 102.824 189.866 102.365 189.569C102.198 189.427 102.069 189.246 101.989 189.042C101.909 188.839 101.88 188.618 101.905 188.401C101.93 188.109 102.024 187.826 102.179 187.576C102.333 187.327 102.544 187.116 102.795 186.963C103.221 186.772 103.683 186.673 104.15 186.673C104.617 186.673 105.079 186.772 105.505 186.963C106.168 187.179 106.8 187.482 107.385 187.862C107.491 187.657 107.553 187.433 107.565 187.203C107.585 186.972 107.554 186.74 107.474 186.523C107.395 186.305 107.269 186.108 107.105 185.944C106.522 185.399 105.754 185.095 104.955 185.095V185.065ZM105.625 183.258C102.957 183.344 100.414 184.41 98.4849 186.254C97.7902 186.918 97.2541 187.729 96.9165 188.628C96.5789 189.527 96.4485 190.491 96.5349 191.447C96.9249 194.603 100.055 196.72 102.615 197.948C104.915 199.057 109.155 200.565 112.295 198.667C112.215 198.308 112.125 197.958 112.035 197.599C111.534 195.016 110.554 192.551 109.145 190.328L108.955 190.478C107.356 191.567 105.435 192.084 103.505 191.946C102.467 191.981 101.436 191.758 100.505 191.297C100.021 191.049 99.6156 190.67 99.3348 190.205C99.0539 189.739 98.9086 189.204 98.9149 188.661C99.0949 186.074 102.915 184.566 104.835 184.506C105.321 184.49 105.805 184.57 106.26 184.742C106.714 184.913 107.131 185.172 107.485 185.505C107.704 185.727 107.873 185.994 107.98 186.286C108.087 186.579 108.129 186.892 108.105 187.203C108.077 187.531 107.982 187.851 107.825 188.141C108.328 188.526 108.785 188.968 109.185 189.46C109.907 188.708 110.336 187.723 110.395 186.683C110.414 186.264 110.333 185.847 110.159 185.465C109.985 185.083 109.723 184.748 109.395 184.486C108.318 183.638 106.976 183.196 105.605 183.238L105.625 183.258ZM112.435 199.236C109.085 201.124 104.735 199.586 102.365 198.448C98.5149 196.6 96.3049 194.203 95.9649 191.457C95.8715 190.415 96.0134 189.365 96.3803 188.385C96.7473 187.405 97.3298 186.52 98.0849 185.795C100.615 183.238 106.245 181.131 109.775 184.027C110.171 184.342 110.488 184.746 110.7 185.205C110.912 185.665 111.013 186.168 110.995 186.673C110.927 187.882 110.423 189.024 109.575 189.889C111.042 192.18 112.06 194.729 112.575 197.399C112.655 197.689 112.725 197.978 112.795 198.268C113.502 197.731 114.073 197.034 114.46 196.236C114.848 195.437 115.041 194.558 115.025 193.671C115.008 192.783 114.782 191.912 114.365 191.129C113.948 190.345 113.352 189.67 112.625 189.16C112.595 189.139 112.569 189.112 112.549 189.081C112.529 189.05 112.516 189.016 112.509 188.98C112.503 188.944 112.503 188.906 112.511 188.871C112.519 188.835 112.534 188.801 112.555 188.771C112.599 188.709 112.666 188.667 112.741 188.654C112.815 188.641 112.892 188.658 112.955 188.701C113.765 189.269 114.428 190.023 114.887 190.9C115.346 191.776 115.589 192.749 115.595 193.738C115.601 194.727 115.37 195.704 114.921 196.585C114.472 197.467 113.819 198.229 113.015 198.807L112.935 198.867C114.185 204.31 113.645 204.539 112.435 199.227V199.236Z" fill="#E85086"/>
<path d="M45.3349 53.8614C44.9866 53.8423 44.6399 53.9219 44.3349 54.0911C44.1617 54.197 44.0168 54.3431 43.9123 54.517C43.8078 54.6909 43.747 54.8874 43.7349 55.0898C43.7167 55.2148 43.73 55.3424 43.7737 55.461C43.8173 55.5796 43.89 55.6854 43.9849 55.7689C44.3335 55.9765 44.7444 56.0543 45.1449 55.9886C46.2851 56.0048 47.3965 55.6313 48.2949 54.93C47.7636 54.5854 47.1885 54.3133 46.5849 54.1211C46.1705 53.9731 45.735 53.8922 45.2949 53.8814L45.3349 53.8614ZM46.2549 51.6944H46.1849C44.3749 51.6944 40.9549 53.1524 40.8149 55.3195C40.8188 55.7544 40.942 56.1799 41.1712 56.5497C41.4004 56.9195 41.7269 57.2194 42.1149 57.4167C42.9527 57.831 43.8807 58.0301 44.8149 57.9959C46.618 58.1275 48.4132 57.6529 49.9149 56.6477L50.1049 56.4979C49.7171 56.034 49.2813 55.6123 48.8049 55.2396C47.8004 56.0805 46.5255 56.5309 45.2149 56.5079C44.6743 56.5819 44.1249 56.4616 43.6649 56.1684C43.4984 56.026 43.3694 55.8451 43.2892 55.6414C43.209 55.4376 43.1801 55.2174 43.2049 54.9999C43.228 54.7068 43.3208 54.4234 43.4756 54.1733C43.6304 53.9231 43.8427 53.7135 44.0949 53.5619C44.5192 53.3705 44.9794 53.2715 45.4449 53.2715C45.9105 53.2715 46.3707 53.3705 46.7949 53.5619C47.4616 53.7775 48.0971 54.0797 48.6849 54.4606C48.7912 54.2562 48.8526 54.0315 48.8649 53.8015C48.8892 53.5661 48.8605 53.3283 48.7809 53.1054C48.7014 52.8825 48.5729 52.6802 48.4049 52.5133C47.8225 51.9675 47.0536 51.664 46.2549 51.6644V51.6944ZM46.9249 49.8868C44.2565 49.9724 41.7138 51.0393 39.7849 52.8828C39.0902 53.5465 38.5541 54.358 38.2165 55.257C37.8789 56.1561 37.7485 57.1195 37.8349 58.0758C38.2249 61.2316 41.3549 63.3487 43.9149 64.5771C46.2149 65.6856 50.4549 67.1936 53.5949 65.2961C53.5149 64.9366 53.4249 64.5871 53.3349 64.2276C52.833 61.6488 51.8528 59.1864 50.4449 56.9673L50.2549 57.1171C48.6534 58.2006 46.7348 58.7174 44.8049 58.5851C43.7665 58.6207 42.7355 58.3977 41.8049 57.936C41.3193 57.6892 40.9129 57.3113 40.6318 56.8452C40.3507 56.3791 40.2062 55.8436 40.2149 55.2995C40.3949 52.713 44.2149 51.205 46.1349 51.1451C47.1158 51.1149 48.0686 51.474 48.7849 52.1438C49.004 52.3659 49.1727 52.6324 49.2797 52.9253C49.3866 53.2182 49.4293 53.5307 49.4049 53.8415C49.3788 54.1719 49.2798 54.4925 49.1149 54.7802C49.6238 55.1621 50.0839 55.6048 50.4849 56.0984C51.2232 55.3569 51.6704 54.3752 51.7449 53.3322C51.7638 52.9131 51.683 52.4956 51.5092 52.1137C51.3354 51.7318 51.0735 51.3965 50.7449 51.1351C49.668 50.2867 48.326 49.8447 46.9549 49.8868H46.9249ZM53.7349 65.8654C50.3849 67.7528 46.0349 66.2149 43.6649 65.0764C39.8149 63.2289 37.6049 60.8321 37.2649 58.1357C37.1776 57.1001 37.3226 56.0581 37.6893 55.0855C38.056 54.1128 38.6353 53.2341 39.3849 52.5133C41.9149 49.9567 47.5449 47.8495 51.0749 50.7456C51.4713 51.0608 51.7882 51.4644 52.0001 51.924C52.212 52.3836 52.3129 52.8864 52.2949 53.3921C52.2275 54.6004 51.7228 55.7431 50.8749 56.6078C52.3419 58.8989 53.36 61.4473 53.8749 64.1177C53.9549 64.4073 54.0249 64.6969 54.0949 64.9865C54.8024 64.4494 55.3731 63.7532 55.7605 62.9544C56.1479 62.1557 56.3412 61.2769 56.3246 60.3896C56.3081 59.5022 56.0821 58.6312 55.6652 57.8474C55.2482 57.0637 54.652 56.3892 53.9249 55.8787C53.8947 55.8578 53.8689 55.8311 53.849 55.8001C53.8292 55.7692 53.8156 55.7347 53.8091 55.6985C53.8026 55.6623 53.8033 55.6252 53.8112 55.5893C53.819 55.5534 53.8339 55.5194 53.8549 55.4893C53.8992 55.4276 53.9658 55.3858 54.0406 55.3727C54.1154 55.3597 54.1924 55.3764 54.2549 55.4194C55.06 55.988 55.718 56.7399 56.1743 57.6129C56.6306 58.4859 56.8721 59.4549 56.879 60.4397C56.8858 61.4244 56.6577 62.3967 56.2136 63.2759C55.7695 64.1551 55.1221 64.9161 54.3249 65.4959L54.2449 65.5558C55.4849 70.9286 54.9449 71.1683 53.7449 65.8554L53.7349 65.8654Z" fill="#C16A8C"/>
<path d="M114.415 67.8526L114.195 68.1522C114.019 68.4055 113.903 68.695 113.855 68.9992C113.806 69.3034 113.827 69.6146 113.915 69.9098C113.965 70.0097 114.045 70.1395 114.165 70.1595C114.229 70.1642 114.293 70.1508 114.349 70.1207C114.406 70.0907 114.453 70.0453 114.485 69.9897C114.639 69.6973 114.725 69.3741 114.737 69.0439C114.749 68.7138 114.687 68.3852 114.555 68.0823C114.514 68.0022 114.467 67.9255 114.415 67.8526ZM109.625 73.0656C109.948 73.2563 110.32 73.3467 110.695 73.3252C111.048 73.2942 111.375 73.1256 111.605 72.8559C111.624 72.8189 111.634 72.7777 111.634 72.736C111.634 72.6943 111.624 72.6532 111.605 72.6162C111.605 72.6162 111.605 72.5163 111.385 72.4864C110.749 72.5088 110.132 72.7095 109.605 73.0656H109.625ZM113.865 72.6861C113.511 72.6735 113.161 72.7712 112.865 72.9657C112.677 73.0687 112.53 73.2327 112.448 73.4308C112.366 73.6288 112.354 73.8488 112.415 74.0543C112.527 74.3456 112.724 74.5966 112.981 74.7747C113.238 74.9528 113.542 75.0497 113.855 75.0529C114.731 75.0211 115.587 74.7741 116.345 74.3339C116.001 73.7814 115.54 73.3109 114.995 72.9557C114.646 72.7642 114.253 72.6646 113.855 72.6661L113.865 72.6861ZM115.075 75.9617C115.025 75.9531 114.975 75.9531 114.925 75.9617C114.622 76.0734 114.367 76.2871 114.205 76.5659C114.042 76.8448 113.982 77.1714 114.035 77.4897C114.048 77.6346 114.085 77.7764 114.145 77.9091C114.443 77.7307 114.697 77.487 114.888 77.1964C115.078 76.9058 115.201 76.5759 115.245 76.2313C115.265 76.1629 115.265 76.0901 115.245 76.0216C115.232 75.9937 115.211 75.9708 115.183 75.9563C115.156 75.9419 115.125 75.9368 115.095 75.9417L115.075 75.9617ZM114.245 78.1388C114.467 78.5223 114.788 78.8395 115.175 79.0576C115.41 79.2166 115.682 79.3138 115.966 79.3399C116.249 79.3661 116.534 79.3205 116.795 79.2074C117.278 78.8548 117.604 78.3282 117.705 77.7393V77.6494H117.795C117.915 77.6593 118.035 77.6593 118.155 77.6494C117.708 76.6484 117.19 75.6805 116.605 74.7533L116.445 74.5037C115.649 74.9708 114.748 75.2317 113.825 75.2626C113.461 75.258 113.107 75.1427 112.811 74.9322C112.514 74.7217 112.289 74.4259 112.165 74.0842C112.089 73.8316 112.102 73.5609 112.2 73.3162C112.298 73.0714 112.476 72.867 112.705 72.736C113.065 72.5224 113.476 72.4097 113.895 72.4097C114.314 72.4097 114.725 72.5224 115.085 72.736C115.662 73.1127 116.15 73.6102 116.515 74.1941C117.12 73.8391 117.681 73.4133 118.185 72.9258C118.711 72.4345 119.112 71.8251 119.355 71.1482C119.46 70.8197 119.498 70.4734 119.465 70.13C119.432 69.7867 119.33 69.4536 119.165 69.1508C118.988 68.855 118.728 68.6183 118.416 68.4707C118.104 68.3232 117.756 68.2714 117.415 68.3219H117.265V68.1721C117.269 68.0253 117.241 67.8794 117.182 67.7448C117.123 67.6101 117.035 67.4901 116.925 67.3932C116.657 67.1331 116.299 66.9864 115.925 66.9837C115.409 67.0287 114.928 67.2636 114.575 67.6429C114.644 67.7333 114.704 67.8303 114.755 67.9325C114.911 68.2715 114.986 68.6425 114.972 69.0156C114.958 69.3886 114.856 69.7531 114.675 70.0796C114.623 70.1732 114.543 70.2484 114.446 70.2949C114.349 70.3414 114.241 70.3569 114.135 70.3392C114.036 70.3196 113.944 70.2741 113.869 70.2075C113.793 70.1408 113.737 70.0553 113.705 69.9597C113.595 69.6271 113.565 69.2736 113.615 68.9271C113.665 68.5806 113.795 68.2504 113.995 67.9624C114.085 67.8426 114.175 67.7227 114.265 67.6229C113.815 67.2185 113.247 66.9699 112.645 66.9138C111.939 66.7739 111.206 66.887 110.575 67.2334C110.28 67.4092 110.049 67.6746 109.916 67.9909C109.783 68.3071 109.754 68.6576 109.835 68.991L109.905 69.2008L109.695 69.1408C109.521 69.1028 109.341 69.1047 109.167 69.1462C108.994 69.1877 108.833 69.2678 108.695 69.3805C108.494 69.5304 108.329 69.7227 108.212 69.9437C108.094 70.1647 108.027 70.4089 108.015 70.6588C108.054 71.1168 108.205 71.5584 108.454 71.9448C108.703 72.3313 109.043 72.6509 109.445 72.8758C110.03 72.4581 110.726 72.2219 111.445 72.1967C111.526 72.2057 111.604 72.234 111.672 72.2792C111.739 72.3244 111.795 72.3851 111.835 72.4564C111.869 72.5281 111.887 72.6066 111.887 72.6861C111.887 72.7656 111.869 72.8441 111.835 72.9158C111.703 73.0818 111.538 73.2188 111.35 73.3185C111.163 73.4181 110.957 73.4782 110.745 73.495C110.282 73.5178 109.824 73.3956 109.435 73.1455C109.201 73.2962 108.987 73.4739 108.795 73.6748C108.563 73.8971 108.385 74.169 108.275 74.47C108.164 74.7711 108.123 75.0933 108.155 75.4124C108.197 75.5865 108.275 75.75 108.383 75.8927C108.492 76.0353 108.628 76.154 108.785 76.2413C109.029 76.3823 109.299 76.4726 109.58 76.5069C109.86 76.5412 110.144 76.5188 110.415 76.4411L110.655 76.3712L110.545 76.6008C110.472 76.7572 110.434 76.9276 110.434 77.1002C110.434 77.2727 110.472 77.4432 110.545 77.5995C110.641 77.81 110.779 77.9986 110.951 78.1532C111.123 78.3079 111.325 78.4254 111.545 78.4983C111.949 78.5927 112.368 78.6024 112.776 78.5268C113.184 78.4511 113.572 78.2918 113.915 78.0589H113.975C113.904 77.8933 113.857 77.7184 113.835 77.5396C113.777 77.1677 113.85 76.7874 114.042 76.4634C114.233 76.1393 114.531 75.8914 114.885 75.762C115.255 75.6521 115.405 75.8319 115.455 75.9417C115.488 76.0491 115.488 76.1639 115.455 76.2713C115.407 76.6559 115.271 77.0244 115.058 77.3483C114.845 77.6721 114.56 77.9426 114.225 78.1388H114.245ZM125.605 77.9091C124.835 77.9091 123.365 79.9663 122.825 81.2446C122.485 82.048 122.259 82.8952 122.155 83.7612C123.845 81.6341 125.985 78.4484 125.725 77.949C125.725 77.949 125.725 77.949 125.625 77.949L125.605 77.9091ZM120.425 86.897C120.065 87.6656 119.755 88.4561 119.495 89.2639C119.086 90.4852 118.863 91.7612 118.835 93.0488C118.832 93.6824 118.892 94.3146 119.015 94.9363C119.075 95.2059 119.165 95.3357 119.235 95.3357C119.315 95.3357 119.465 95.1859 119.555 94.8564C120.266 92.256 120.56 89.5594 120.425 86.8671V86.897ZM119.695 96.5241H119.625C119.614 96.5139 119.605 96.5015 119.599 96.4877C119.593 96.474 119.59 96.4592 119.59 96.4442C119.59 96.4293 119.593 96.4145 119.599 96.4007C119.605 96.387 119.614 96.3746 119.625 96.3644C120.651 94.9726 121.361 93.3742 121.705 91.6806C121.975 90.0738 122.026 88.4376 121.855 86.8171V86.4077C121.81 85.7794 121.81 85.1486 121.855 84.5202C121.407 85.1545 121.01 85.8223 120.665 86.5176C120.85 89.3619 120.56 92.2173 119.805 94.9662C119.695 95.3757 119.475 95.6253 119.255 95.6154C119.035 95.6054 118.915 95.5055 118.825 95.0361C118.694 94.3987 118.631 93.7494 118.635 93.0987C118.666 91.7878 118.892 90.4887 119.305 89.2439C119.605 88.294 119.98 87.369 120.425 86.4776C120.246 83.7566 119.628 81.0824 118.595 78.5582C118.515 78.3485 118.425 78.1288 118.325 77.9191C118.192 77.9289 118.058 77.9289 117.925 77.9191C117.794 78.5272 117.437 79.0628 116.925 79.4171C116.629 79.5512 116.304 79.6079 115.98 79.5817C115.657 79.5555 115.345 79.4473 115.075 79.2673C114.662 79.0246 114.318 78.6809 114.075 78.2686H114.025C113.652 78.516 113.233 78.6844 112.793 78.7634C112.352 78.8424 111.9 78.8304 111.465 78.728C111.221 78.6452 110.996 78.5141 110.803 78.3425C110.611 78.1709 110.455 77.9624 110.345 77.7293C110.208 77.4325 110.176 77.0979 110.255 76.7806C109.71 76.8808 109.146 76.7853 108.665 76.511C108.476 76.4071 108.312 76.2644 108.182 76.0922C108.053 75.92 107.962 75.7223 107.915 75.5123C107.876 75.1574 107.918 74.7983 108.04 74.4624C108.161 74.1266 108.358 73.823 108.615 73.5749C108.791 73.3827 108.989 73.2118 109.205 73.0656C108.791 72.818 108.444 72.4746 108.191 72.0643C107.939 71.654 107.789 71.189 107.755 70.7087C107.767 70.4224 107.842 70.1422 107.975 69.8884C108.108 69.6345 108.296 69.4133 108.525 69.2407C108.672 69.1215 108.842 69.0328 109.024 68.9796C109.206 68.9265 109.396 68.91 109.585 68.9311C109.538 68.5702 109.597 68.2033 109.755 67.8753C109.913 67.5473 110.163 67.2722 110.475 67.0836C111.151 66.7113 111.937 66.5876 112.695 66.7341C113.345 66.7992 113.958 67.0684 114.445 67.503C114.83 67.0861 115.359 66.8294 115.925 66.784C116.151 66.7719 116.378 66.8074 116.59 66.8883C116.802 66.9691 116.994 67.0935 117.155 67.2534C117.384 67.4697 117.529 67.7597 117.565 68.0723C117.937 68.0489 118.309 68.13 118.638 68.3065C118.966 68.4829 119.239 68.7478 119.425 69.0709C119.614 69.4069 119.73 69.7786 119.766 70.1622C119.802 70.5458 119.758 70.9327 119.635 71.298C119.38 72.0096 118.958 72.6499 118.405 73.1655C117.895 73.6676 117.324 74.1038 116.705 74.4637C116.755 74.5436 116.805 74.6335 116.865 74.7134C117.464 75.6741 117.995 76.6752 118.455 77.7094C118.893 77.6431 119.302 77.4482 119.63 77.1495C119.958 76.8509 120.189 76.4618 120.295 76.0316C120.377 75.4933 120.257 74.9436 119.958 74.4883C119.659 74.0329 119.202 73.7041 118.675 73.5649C118.661 73.5627 118.647 73.5575 118.635 73.5494C118.623 73.5414 118.612 73.5309 118.605 73.5185C118.597 73.5062 118.592 73.4923 118.591 73.4779C118.589 73.4635 118.59 73.4489 118.595 73.4351C118.597 73.4206 118.603 73.4066 118.61 73.3942C118.618 73.3818 118.629 73.371 118.641 73.3626C118.653 73.3542 118.667 73.3484 118.681 73.3454C118.696 73.3424 118.71 73.3423 118.725 73.3452C119.263 73.4578 119.744 73.7569 120.082 74.1894C120.421 74.6219 120.596 75.1601 120.575 75.7087C120.555 76.2574 120.341 76.7812 119.971 77.1875C119.602 77.5938 119.1 77.8565 118.555 77.9291C118.645 78.1188 118.725 78.3185 118.805 78.5183C119.793 80.948 120.403 83.5142 120.615 86.1281C120.983 85.4308 121.404 84.763 121.875 84.1308C121.966 83.1011 122.212 82.091 122.605 81.1348C123.115 79.9464 124.605 77.7193 125.605 77.6594C125.671 77.6469 125.74 77.6555 125.801 77.6842C125.862 77.7129 125.912 77.7602 125.945 77.8192C126.425 78.748 122.295 83.961 122.255 84.0109L122.125 84.1807C122.064 84.9218 122.064 85.6666 122.125 86.4077V86.8171C122.289 88.4545 122.239 90.1063 121.975 91.7306C121.622 93.4578 120.895 95.087 119.845 96.5042C119.835 96.5186 119.821 96.5306 119.806 96.5393C119.79 96.5479 119.773 96.553 119.755 96.5541L119.695 96.5241Z" fill="#BA225C"/>
<path d="M39.3253 170.186C38.953 170.24 38.6051 170.403 38.3253 170.655C36.9836 171.795 35.8735 173.181 35.0553 174.739V174.809C33.2218 177.677 32.0553 180.918 31.6417 184.295C31.2281 187.672 31.5779 191.099 32.6653 194.323C35.6614 190.365 37.8618 185.865 39.1453 181.071C39.783 178.622 40.1419 176.11 40.2153 173.581C40.2853 171.084 39.6853 170.305 39.3553 170.235L39.3253 170.186Z" fill="#24B574"/>
<path d="M86.2352 143.521C85.8623 143.58 85.5147 143.747 85.2352 144.001C83.8932 145.136 82.783 146.52 81.9652 148.075V148.155C80.1393 151.016 78.977 154.249 78.5635 157.617C78.15 160.984 78.4956 164.402 79.5752 167.619C82.5663 163.661 84.7663 159.165 86.0552 154.377C86.6921 151.928 87.0511 149.416 87.1252 146.887C87.1852 144.39 86.5952 143.601 86.2652 143.541L86.2352 143.521Z" fill="#24B574"/>
<path d="M87.2253 223.864C86.5653 229.286 86.9553 235.128 90.2253 240.371C90.492 240.842 90.9227 241.197 91.4353 241.37C91.5834 241.405 91.7388 241.387 91.8753 241.32C92.1853 241.17 92.2453 240.801 92.2753 240.451C92.6123 235.555 91.4323 230.674 88.8953 226.47C88.3853 225.591 87.8053 224.722 87.1953 223.864H87.2253Z" fill="#24B574"/>
<path d="M96.4751 25.749C96.1129 25.7081 95.7463 25.7668 95.4151 25.9188C93.796 26.61 92.3257 27.607 91.0851 28.8548L91.0151 28.9148C88.4336 31.1121 86.3758 33.8571 84.9918 36.9497C83.6077 40.0423 82.9324 43.4044 83.0151 46.7908C87.0473 43.8943 90.4832 40.2494 93.1351 36.0552C94.4767 33.9079 95.564 31.6122 96.3751 29.2144C97.1851 26.8475 96.8451 25.9288 96.5551 25.769L96.4751 25.749Z" fill="#24B574"/>
<path d="M73.835 96.7739C73.165 102.187 73.565 108.029 76.835 113.272C77.0971 113.746 77.5296 114.103 78.045 114.27C78.1874 114.321 78.3427 114.321 78.485 114.27C78.795 114.121 78.865 113.741 78.895 113.402C79.2191 108.506 78.04 103.629 75.515 99.4204C74.995 98.5416 74.425 97.6727 73.815 96.8238L73.835 96.7739Z" fill="#24B574"/>
</svg>
