<svg width="155" height="295" viewBox="0 0 155 295" fill="none" xmlns="http://www.w3.org/2000/svg">
<path d="M19.1704 130.199C21.9804 92.8408 10.0204 79.7691 20.0904 51.3089C22.3804 44.8579 28.6604 27.7818 44.9004 15.2893C63.2404 1.17904 90.8004 -4.43311 114.74 7.5002C145.15 22.669 158.1 60.4262 153.33 87.3885C148.24 116.178 125.26 119.484 124.84 144.838C124.41 171.321 149.29 176.733 151.49 205.214C154.25 240.834 118.19 269.124 113.82 272.41C93.6404 287.778 54.0704 304.844 26.5204 285.072C-2.93963 263.872 0.660368 214.431 1.71037 199.332C4.15037 165.379 16.4204 166.688 19.1704 130.199Z" fill="#F0EFEF" stroke="#4D4D4D" stroke-miterlimit="10"/>
<path d="M27.0901 128.821C29.5601 93.0605 19.0301 80.558 27.8901 53.3261C29.8901 47.1248 35.4401 30.8076 49.7501 18.8443C65.9101 5.34323 90.2001 -0.0791831 111.28 11.3848C138.08 25.9045 149.49 62.004 145.28 87.8079C140.79 115.359 120.55 118.525 120.18 142.791C119.79 168.136 141.72 173.318 143.66 200.58C146.09 234.662 114.32 261.695 110.47 264.88C92.6601 279.6 57.8401 295.927 33.5601 277.003C7.66009 256.752 10.7401 209.438 11.6601 194.988C13.8601 162.483 24.6601 163.752 27.0901 128.821Z" fill="#B2DFDB"/>
<path d="M41.5099 119.404C41.9415 120.863 42.4728 122.291 43.0999 123.678C43.8799 125.435 45.7899 127.672 47.4099 128.111C47.6035 128.183 47.8104 128.211 48.016 128.194C48.2217 128.176 48.421 128.114 48.5999 128.012C48.6799 127.948 48.7427 127.865 48.7829 127.771C48.823 127.677 48.8392 127.574 48.8299 127.472C48.8299 125.925 46.3699 122.579 44.4799 121.211C43.5247 120.537 42.5221 119.933 41.4799 119.404H41.5099ZM51.7299 111.035C51.6099 111.035 51.4299 111.255 51.3099 111.894C50.7032 115.24 50.7473 118.671 51.4399 122C52.1499 125.007 53.1099 127.95 54.3099 130.798C55.8899 128.621 55.8499 124.916 55.6199 122.489C55.0299 116.408 52.6199 111.075 51.7299 111.035ZM54.7999 133.514C54.5699 132.975 54.3499 132.425 54.1199 131.876C53.558 132.405 52.8692 132.78 52.1199 132.965C50.1062 133.363 48.0161 133.026 46.2299 132.016C42.6002 130.098 39.6187 127.152 37.6599 123.548C36.9401 122.261 36.4271 120.869 36.1399 119.424C35.9799 118.575 36.1399 117.996 36.6299 117.686C37.4499 117.167 39.0399 117.616 40.6299 118.335C40.0437 116.183 40.0541 113.911 40.6599 111.764C40.7159 111.541 40.8322 111.337 40.9962 111.175C41.1602 111.013 41.3655 110.899 41.5899 110.846C43.4199 110.406 46.9099 113.742 47.5899 114.411C47.6443 114.465 47.6748 114.539 47.6748 114.615C47.6748 114.692 47.6443 114.766 47.5899 114.82C47.5639 114.847 47.5327 114.868 47.4984 114.882C47.4641 114.897 47.4272 114.904 47.3899 114.904C47.3527 114.904 47.3158 114.897 47.2815 114.882C47.2471 114.868 47.216 114.847 47.1899 114.82C45.3299 112.993 42.8299 111.135 41.7199 111.405C41.592 111.438 41.4758 111.506 41.3841 111.602C41.2924 111.697 41.2287 111.815 41.1999 111.944C40.5857 114.153 40.6135 116.491 41.2799 118.685C42.4985 119.299 43.6715 120 44.7899 120.782C46.6299 122.11 49.4199 125.655 49.3799 127.522C49.3876 127.717 49.3458 127.911 49.2583 128.086C49.1709 128.26 49.0408 128.41 48.8799 128.521C48.6321 128.672 48.3533 128.766 48.0643 128.795C47.7752 128.825 47.4833 128.789 47.2099 128.691C45.4499 128.171 43.3699 125.815 42.5399 123.947C41.8318 122.374 41.2467 120.748 40.7899 119.084C39.1599 118.295 37.5799 117.796 36.9399 118.195C36.6699 118.375 36.5899 118.755 36.6999 119.344C36.9798 120.742 37.4721 122.089 38.1599 123.338C40.0508 126.83 42.9262 129.691 46.4299 131.567C48.0925 132.504 50.0331 132.826 51.9099 132.475C52.6716 132.305 53.3668 131.917 53.9099 131.357C52.658 128.389 51.6546 125.323 50.9099 122.19C50.1838 118.758 50.1261 115.218 50.7399 111.764C50.9199 110.866 51.2599 110.416 51.7399 110.436C53.4299 110.526 55.6699 117.257 56.1699 122.419C56.5699 126.564 55.9999 129.629 54.5399 131.407C54.7899 132.046 55.0499 132.675 55.3099 133.294C56.0399 135.022 55.4999 135.232 54.7999 133.514Z" fill="#C16A8C"/>
<path d="M51.9799 260.556C52.4099 262.016 52.9412 263.444 53.5699 264.83C54.3499 266.598 56.2699 268.825 57.8799 269.264C58.0731 269.338 58.2804 269.367 58.4863 269.349C58.6923 269.332 58.8917 269.269 59.0699 269.164C59.1498 269.103 59.2127 269.022 59.2529 268.929C59.2931 268.837 59.3093 268.735 59.2999 268.635C59.2999 267.077 56.8399 263.732 54.9499 262.374C53.9927 261.7 52.9904 261.093 51.9499 260.556H51.9799ZM62.1999 252.188C62.0799 252.188 61.9099 252.418 61.7799 253.057C61.1732 256.403 61.2174 259.834 61.9099 263.163C62.6245 266.165 63.5844 269.104 64.7799 271.95C66.3599 269.773 66.3299 266.069 66.0899 263.642C65.4999 257.571 63.0899 252.238 62.1999 252.188ZM65.2699 274.667C65.0399 274.127 64.8199 273.578 64.5999 273.029C64.0338 273.554 63.3469 273.931 62.5999 274.127C60.5802 274.504 58.4922 274.15 56.7099 273.129C53.1043 271.207 50.1473 268.264 48.2099 264.671C47.4858 263.386 46.963 261.999 46.6599 260.556C46.4999 259.718 46.6599 259.128 47.1499 258.819C47.9699 258.3 49.5599 258.749 51.1499 259.468C50.5437 257.309 50.5437 255.026 51.1499 252.867C51.2089 252.645 51.3262 252.443 51.4897 252.281C51.6532 252.12 51.857 252.005 52.0799 251.948C53.9099 251.509 57.3999 254.844 58.0799 255.523C58.1065 255.549 58.1277 255.581 58.1421 255.615C58.1566 255.649 58.164 255.686 58.164 255.723C58.164 255.76 58.1566 255.797 58.1421 255.831C58.1277 255.866 58.1065 255.897 58.0799 255.923C58.0256 255.977 57.9518 256.008 57.8749 256.008C57.7981 256.008 57.7243 255.977 57.6699 255.923C55.8099 254.085 53.3099 252.238 52.2099 252.498C52.0815 252.53 51.9648 252.598 51.8729 252.693C51.781 252.788 51.7176 252.907 51.6899 253.037C51.0719 255.245 51.0962 257.583 51.7599 259.777C52.9798 260.39 54.153 261.09 55.2699 261.875C57.1099 263.203 59.8999 266.758 59.8599 268.615C59.8695 268.81 59.8285 269.005 59.741 269.18C59.6534 269.355 59.5222 269.504 59.3599 269.614C59.1147 269.767 58.8375 269.862 58.5497 269.891C58.2619 269.921 57.9712 269.884 57.6999 269.783C55.9299 269.274 53.8499 266.917 53.0199 265.04C52.3105 263.47 51.7254 261.848 51.2699 260.187C49.6399 259.398 48.0599 258.889 47.4199 259.298C47.1499 259.468 47.0699 259.847 47.1899 260.437C47.4595 261.836 47.9488 263.184 48.6399 264.431C50.5308 267.923 53.4063 270.784 56.9099 272.659C58.5711 273.601 60.5132 273.923 62.3899 273.568C63.1516 273.398 63.8468 273.009 64.3899 272.45C63.138 269.482 62.1346 266.416 61.3899 263.283C60.6874 259.874 60.6433 256.362 61.2599 252.937C61.4399 252.038 61.7799 251.589 62.2599 251.619C63.9599 251.699 66.1899 258.429 66.6899 263.602C67.0999 267.746 66.5199 270.812 65.0599 272.59L65.8299 274.477C66.5099 276.184 65.9699 276.394 65.2699 274.677V274.667Z" fill="#C16A8C"/>
<path d="M115.87 64.83C116.302 66.2893 116.833 67.7173 117.46 69.104C118.24 70.8616 120.15 73.0984 121.76 73.5378C121.953 73.6119 122.16 73.6415 122.366 73.6242C122.572 73.6069 122.772 73.5432 122.95 73.438C123.033 73.3787 123.099 73.2985 123.141 73.2055C123.183 73.1126 123.2 73.0102 123.19 72.9087C123.19 71.3509 120.73 68.0055 118.84 66.6375C117.879 65.9719 116.877 65.3682 115.84 64.83H115.87ZM126.09 56.4617C125.97 56.4617 125.79 56.6914 125.67 57.3205C125.06 60.6689 125.101 64.1033 125.79 67.4363C126.505 70.4401 127.468 73.3794 128.67 76.2241C130.24 74.0471 130.21 70.3423 129.98 67.9157C129.39 61.8342 126.98 56.5116 126.09 56.4617ZM129.16 78.9403C128.93 78.401 128.71 77.8518 128.48 77.3025C127.915 77.8286 127.227 78.2061 126.48 78.401C124.46 78.779 122.372 78.4249 120.59 77.4024C116.981 75.477 114.021 72.5314 112.08 68.9343C111.362 67.6475 110.853 66.2556 110.57 64.81C110.4 63.9612 110.57 63.382 111.06 63.0724C111.88 62.5532 113.46 63.0025 115.06 63.7215C114.459 61.5622 114.459 59.2801 115.06 57.1208C115.119 56.897 115.237 56.6934 115.403 56.5316C115.568 56.3698 115.775 56.2559 116 56.2021C117.83 55.7627 121.32 59.098 122 59.7671C122.052 59.8226 122.081 59.8958 122.081 59.9718C122.081 60.0478 122.052 60.121 122 60.1765C121.974 60.2046 121.942 60.2271 121.907 60.2424C121.871 60.2577 121.833 60.2657 121.795 60.2657C121.756 60.2657 121.718 60.2577 121.683 60.2424C121.648 60.2271 121.616 60.2046 121.59 60.1765C119.74 58.3491 117.24 56.4917 116.13 56.7613C116.001 56.7927 115.884 56.8601 115.792 56.9555C115.699 57.051 115.636 57.1707 115.61 57.3005C114.996 59.5095 115.023 61.8473 115.69 64.0411C116.907 64.6527 118.077 65.3537 119.19 66.1382C121.04 67.4663 123.83 71.0113 123.79 72.8787C123.796 73.0735 123.753 73.2667 123.666 73.4409C123.579 73.6152 123.449 73.7651 123.29 73.8773C123.042 74.0287 122.763 74.1225 122.474 74.1519C122.185 74.1813 121.893 74.1455 121.62 74.0471C119.86 73.5378 117.78 71.1811 116.95 69.3037C116.236 67.7326 115.651 66.1062 115.2 64.4405C113.56 63.6516 111.99 63.1523 111.35 63.5518C111.08 63.7315 111 64.111 111.11 64.7002C111.39 66.0982 111.882 67.4452 112.57 68.6946C114.457 72.1862 117.329 75.0474 120.83 76.9231C122.496 77.8598 124.44 78.1815 126.32 77.8318C127.082 77.6618 127.777 77.273 128.32 76.7134C127.064 73.7473 126.06 70.6807 125.32 67.5462C124.617 64.1374 124.573 60.626 125.19 57.2007C125.37 56.3019 125.71 55.8526 126.19 55.8825C127.88 55.9624 130.12 62.693 130.62 67.8657C131.02 72.01 130.45 75.0757 128.99 76.8532C129.24 77.4923 129.5 78.1214 129.76 78.7405C130.4 80.4382 129.86 80.6479 129.16 78.9303V78.9403Z" fill="#9A1B48"/>
<path d="M52.95 196.486C52.8706 196.593 52.8003 196.707 52.74 196.825C52.538 197.286 52.4421 197.787 52.4595 198.29C52.4768 198.793 52.6068 199.285 52.84 199.731C52.8882 199.816 52.9604 199.885 53.0475 199.929C53.1346 199.974 53.2328 199.992 53.33 199.981C53.52 199.981 53.64 199.761 53.71 199.611C53.8476 199.163 53.8823 198.69 53.8113 198.227C53.7403 197.763 53.5655 197.322 53.3 196.935C53.1913 196.779 53.0745 196.629 52.95 196.486ZM60.25 204.415C59.4471 203.874 58.508 203.569 57.54 203.536C57.28 203.536 57.22 203.696 57.21 203.726C57.1754 203.781 57.1571 203.845 57.1571 203.91C57.1571 203.976 57.1754 204.04 57.21 204.095C57.3802 204.301 57.59 204.471 57.827 204.594C58.0641 204.718 58.3235 204.793 58.59 204.814C59.1607 204.843 59.7275 204.704 60.22 204.415H60.25ZM53.8 203.836C53.1906 203.831 52.5907 203.986 52.06 204.285C51.2281 204.821 50.5248 205.534 50 206.372C51.1507 207.052 52.4537 207.433 53.79 207.48C54.2692 207.47 54.7346 207.317 55.1265 207.042C55.5184 206.766 55.819 206.38 55.99 205.933C56.0809 205.618 56.0622 205.281 55.9369 204.978C55.8115 204.675 55.587 204.424 55.3 204.265C54.8572 203.969 54.3326 203.819 53.8 203.836ZM51.96 208.829C51.9127 208.822 51.8647 208.832 51.8233 208.855C51.7818 208.879 51.749 208.915 51.73 208.958C51.6994 209.063 51.6994 209.174 51.73 209.278C51.7948 209.803 51.9801 210.306 52.2715 210.748C52.5629 211.189 52.9525 211.558 53.41 211.824C53.4894 211.621 53.5464 211.411 53.58 211.195C53.6551 210.71 53.561 210.215 53.3134 209.791C53.0657 209.367 52.6796 209.042 52.22 208.869C52.1471 208.857 52.0728 208.857 52 208.869L51.96 208.829ZM53.21 212.144C52.6984 211.847 52.263 211.435 51.9384 210.941C51.6139 210.447 51.409 209.885 51.34 209.298C51.3219 209.132 51.3459 208.963 51.41 208.809C51.49 208.629 51.72 208.369 52.28 208.529C52.8198 208.725 53.2749 209.102 53.5684 209.595C53.8618 210.089 53.9754 210.668 53.89 211.235C53.8507 211.506 53.7768 211.772 53.67 212.024L53.76 212.074C54.2842 212.425 54.8749 212.666 55.4957 212.781C56.1165 212.896 56.7543 212.883 57.37 212.743C57.6972 212.625 57.9971 212.443 58.2515 212.206C58.5059 211.969 58.7095 211.683 58.85 211.365C58.9559 211.135 59.0108 210.884 59.0108 210.631C59.0108 210.378 58.9559 210.127 58.85 209.897L58.69 209.558L59.05 209.657C59.4626 209.774 59.8943 209.807 60.32 209.756C60.7457 209.704 61.157 209.569 61.53 209.358C61.7758 209.228 61.9918 209.047 62.164 208.829C62.3362 208.611 62.4608 208.359 62.53 208.09C62.5733 207.602 62.5059 207.111 62.3328 206.652C62.1596 206.194 61.8852 205.781 61.53 205.443C61.2323 205.135 60.8962 204.867 60.53 204.644C59.934 205.023 59.2354 205.208 58.53 205.174C58.2083 205.148 57.8955 205.055 57.6115 204.902C57.3275 204.749 57.0784 204.539 56.88 204.285C56.8213 204.18 56.7905 204.061 56.7905 203.94C56.7905 203.82 56.8213 203.701 56.88 203.596C56.9335 203.483 57.0164 203.386 57.1202 203.316C57.224 203.245 57.3448 203.204 57.47 203.196C58.5856 203.216 59.6708 203.563 60.59 204.195C61.1998 203.854 61.7166 203.369 62.0949 202.782C62.4733 202.196 62.7016 201.525 62.76 200.83C62.7518 200.444 62.6579 200.064 62.485 199.719C62.312 199.373 62.0644 199.071 61.76 198.833C61.5404 198.651 61.2811 198.524 61.0031 198.461C60.725 198.399 60.4362 198.403 60.16 198.473L59.84 198.563L59.94 198.243C60.0465 197.746 59.9937 197.228 59.7891 196.762C59.5846 196.296 59.2385 195.906 58.8 195.647C57.8375 195.127 56.7251 194.954 55.65 195.158C54.7318 195.242 53.8655 195.62 53.18 196.236C53.3299 196.402 53.467 196.579 53.59 196.765C53.8869 197.198 54.0809 197.693 54.1572 198.212C54.2334 198.732 54.1899 199.261 54.03 199.761C53.9822 199.906 53.8969 200.036 53.7828 200.138C53.6687 200.24 53.5297 200.309 53.38 200.34C53.2189 200.364 53.0545 200.338 52.9083 200.267C52.762 200.196 52.6406 200.082 52.56 199.941C52.2845 199.445 52.1293 198.891 52.1067 198.324C52.0842 197.757 52.1949 197.192 52.43 196.676C52.5091 196.521 52.6029 196.373 52.71 196.236C52.1863 195.673 51.4757 195.318 50.71 195.238C50.4139 195.229 50.1192 195.28 49.8429 195.386C49.5665 195.492 49.314 195.652 49.1 195.857C48.9382 196.01 48.8095 196.194 48.7217 196.398C48.634 196.603 48.5892 196.823 48.59 197.045V197.265H48.37C47.8499 197.168 47.3127 197.231 46.829 197.444C46.3453 197.658 45.9377 198.013 45.66 198.463C45.3965 198.93 45.2353 199.447 45.187 199.981C45.1388 200.515 45.2045 201.052 45.38 201.559C45.7447 202.592 46.3556 203.52 47.16 204.265C47.9118 205.009 48.7512 205.66 49.66 206.202C50.2175 205.311 50.9653 204.554 51.85 203.985C52.3964 203.657 53.0222 203.483 53.66 203.483C54.2978 203.483 54.9235 203.657 55.47 203.985C55.8182 204.186 56.0885 204.499 56.2373 204.872C56.3861 205.245 56.4046 205.657 56.29 206.042C56.0963 206.56 55.7518 207.008 55.3009 207.328C54.8499 207.649 54.3132 207.827 53.76 207.84C52.35 207.789 50.975 207.388 49.76 206.672C49.67 206.801 49.59 206.931 49.51 207.061C48.6233 208.473 47.8348 209.945 47.15 211.465C47.3296 211.48 47.5103 211.48 47.69 211.465H47.84V211.615C48.0034 212.509 48.5001 213.308 49.23 213.852C49.6284 214.023 50.0639 214.091 50.4958 214.049C50.9277 214.007 51.342 213.857 51.7 213.612C52.2882 213.282 52.7756 212.799 53.11 212.214L53.21 212.144ZM35.92 211.794C35.8 211.794 35.78 211.794 35.77 211.854C35.37 212.623 38.62 217.466 41.21 220.712C41.0481 219.395 40.7119 218.106 40.21 216.877C39.38 214.88 37.15 211.884 35.97 211.794H35.92ZM43.81 225.555C43.6022 229.637 44.0478 233.726 45.13 237.668C45.27 238.177 45.5 238.407 45.62 238.407C45.72 238.407 45.86 238.217 45.95 237.798C46.1431 236.852 46.2336 235.888 46.22 234.922C46.1788 232.962 45.8417 231.02 45.22 229.16C44.8306 227.929 44.3596 226.724 43.81 225.555ZM44.92 240.215C44.8927 240.215 44.8658 240.209 44.8414 240.197C44.8171 240.185 44.796 240.167 44.78 240.145C43.1848 237.985 42.0792 235.504 41.54 232.875C41.1345 230.399 41.0571 227.881 41.31 225.385V224.766C41.3811 223.635 41.361 222.499 41.25 221.371C41.19 221.291 41.12 221.211 41.06 221.121C41 221.032 34.7 213.133 35.43 211.695C35.4813 211.605 35.5584 211.534 35.6512 211.489C35.744 211.445 35.8482 211.429 35.95 211.445C37.4 211.535 39.71 214.93 40.48 216.737C41.0957 218.168 41.4935 219.683 41.66 221.231C42.3828 222.174 43.0251 223.176 43.58 224.227C43.8933 220.244 44.8105 216.331 46.3 212.623L46.68 211.725C45.8456 211.618 45.0761 211.22 44.5087 210.6C43.9412 209.98 43.6125 209.179 43.5813 208.34C43.5501 207.5 43.8183 206.677 44.3382 206.017C44.8581 205.357 45.5958 204.902 46.42 204.734C46.465 204.724 46.5125 204.731 46.5519 204.756C46.5913 204.78 46.6193 204.819 46.63 204.864C46.6406 204.909 46.6328 204.957 46.6084 204.996C46.5841 205.035 46.545 205.063 46.5 205.074C45.6969 205.284 45.0006 205.785 44.5461 206.478C44.0916 207.172 43.9112 208.01 44.04 208.829C44.1993 209.482 44.5497 210.073 45.0466 210.526C45.5435 210.98 46.1643 211.275 46.83 211.375C47.532 209.799 48.344 208.274 49.26 206.811L49.5 206.442C48.5563 205.887 47.6862 205.216 46.91 204.445C46.0707 203.672 45.4294 202.71 45.04 201.639C44.8537 201.083 44.7859 200.495 44.841 199.912C44.8961 199.329 45.0729 198.764 45.36 198.253C45.6484 197.771 46.0667 197.38 46.567 197.124C47.0674 196.868 47.6298 196.758 48.19 196.805C48.2422 196.332 48.4621 195.893 48.81 195.567C49.0555 195.325 49.3483 195.137 49.67 195.013C49.9917 194.889 50.3355 194.833 50.68 194.848C51.5421 194.92 52.3472 195.307 52.94 195.937C53.6811 195.277 54.6121 194.868 55.6 194.768C56.7551 194.545 57.9519 194.736 58.98 195.307C59.4536 195.594 59.8335 196.012 60.0732 196.51C60.313 197.008 60.4022 197.565 60.33 198.114C60.9121 198.054 61.4943 198.226 61.95 198.593C62.3014 198.853 62.5892 199.19 62.7918 199.577C62.9944 199.965 63.1066 200.393 63.12 200.83C63.0782 201.561 62.8554 202.27 62.4714 202.894C62.0874 203.518 61.5543 204.037 60.92 204.405C61.2465 204.628 61.5452 204.89 61.81 205.184C62.2084 205.566 62.5124 206.036 62.6981 206.556C62.8837 207.076 62.946 207.631 62.88 208.179C62.7987 208.484 62.6568 208.77 62.4626 209.018C62.2685 209.267 62.0261 209.474 61.75 209.627C61.0132 210.045 60.1542 210.193 59.32 210.047C59.4331 210.529 59.3802 211.036 59.17 211.485C59.0105 211.847 58.7782 212.172 58.4874 212.44C58.1967 212.708 57.8537 212.913 57.48 213.043C56.8172 213.199 56.1294 213.219 55.4587 213.1C54.7881 212.982 54.1488 212.728 53.58 212.354L53.51 212.304C53.1429 212.933 52.6149 213.453 51.98 213.812C51.5707 214.091 51.0958 214.261 50.6016 214.303C50.1074 214.345 49.6107 214.258 49.16 214.051C48.3905 213.513 47.8544 212.702 47.66 211.784C47.4569 211.8 47.253 211.8 47.05 211.784C46.91 212.104 46.77 212.434 46.64 212.783C45.0783 216.624 44.1398 220.69 43.86 224.826C44.5344 226.185 45.1028 227.594 45.56 229.04C46.1871 230.936 46.5242 232.916 46.56 234.912C46.5752 235.901 46.4813 236.889 46.28 237.858C46.13 238.577 45.84 238.737 45.62 238.747C45.4 238.757 44.96 238.377 44.78 237.748C43.6343 233.566 43.195 229.222 43.48 224.896C42.954 223.853 42.3489 222.851 41.67 221.9C41.7301 222.858 41.7301 223.819 41.67 224.776V225.395C41.4119 227.861 41.4859 230.349 41.89 232.795C42.4198 235.374 43.5048 237.807 45.07 239.925C45.087 239.94 45.1006 239.958 45.11 239.979C45.1193 240 45.1241 240.022 45.1241 240.045C45.1241 240.068 45.1193 240.09 45.11 240.111C45.1006 240.131 45.087 240.15 45.07 240.165C45.0378 240.177 45.0021 240.177 44.97 240.165L44.92 240.215Z" fill="#BA225C"/>
<path d="M107.18 254.634C107.162 254.543 107.138 254.453 107.11 254.365C106.974 254.038 106.767 253.744 106.504 253.506C106.242 253.268 105.93 253.091 105.59 252.987C105.523 252.969 105.453 252.971 105.388 252.992C105.322 253.014 105.264 253.053 105.22 253.107C105.186 253.164 105.168 253.23 105.168 253.296C105.168 253.363 105.186 253.429 105.22 253.486C105.379 253.777 105.602 254.028 105.872 254.22C106.143 254.412 106.453 254.54 106.78 254.595C106.913 254.604 107.047 254.604 107.18 254.595V254.634ZM99.5602 254.425C100.231 254.288 100.849 253.962 101.34 253.486C101.45 253.336 101.42 253.256 101.4 253.226C101.384 253.183 101.357 253.145 101.322 253.116C101.287 253.086 101.245 253.066 101.2 253.057C100.834 253.041 100.476 253.166 100.2 253.406C99.9053 253.672 99.6964 254.02 99.6002 254.405L99.5602 254.425ZM103.03 251.429C103.334 251.125 103.552 250.746 103.66 250.33C103.81 249.646 103.81 248.938 103.66 248.253C102.75 248.508 101.916 248.981 101.23 249.631C100.999 249.879 100.847 250.191 100.796 250.526C100.744 250.86 100.794 251.203 100.94 251.509C101.052 251.711 101.231 251.869 101.446 251.955C101.661 252.04 101.899 252.049 102.12 251.978C102.504 251.906 102.854 251.714 103.12 251.429H103.03ZM101.41 248.044C101.49 247.954 101.47 247.894 101.41 247.864C101.382 247.792 101.333 247.729 101.27 247.684C100.971 247.46 100.624 247.308 100.257 247.239C99.8891 247.17 99.5106 247.185 99.1502 247.285C99.2106 247.429 99.2914 247.563 99.3902 247.684C99.6 247.96 99.8984 248.155 100.235 248.237C100.572 248.319 100.927 248.282 101.24 248.134C101.288 248.111 101.332 248.081 101.37 248.044H101.41ZM99.1002 247.045C99.5031 246.932 99.9268 246.914 100.338 246.992C100.749 247.07 101.137 247.242 101.47 247.494C101.564 247.569 101.639 247.665 101.69 247.774C101.69 247.904 101.76 248.154 101.4 248.353C101.034 248.529 100.618 248.573 100.223 248.478C99.8278 248.384 99.4772 248.156 99.2302 247.834C99.1124 247.681 99.0149 247.513 98.9402 247.335H98.8702C98.4343 247.426 98.0219 247.606 97.6589 247.864C97.2958 248.122 96.9899 248.451 96.7602 248.833C96.6636 249.058 96.6139 249.301 96.6139 249.547C96.6139 249.792 96.6636 250.035 96.7602 250.261C96.8228 250.428 96.9202 250.581 97.046 250.708C97.1718 250.835 97.3232 250.935 97.4902 251L97.7402 251.089L97.5102 251.229C97.249 251.38 97.0207 251.581 96.8386 251.821C96.6566 252.061 96.5245 252.335 96.4502 252.627C96.3987 252.815 96.3863 253.011 96.4138 253.203C96.4413 253.395 96.5082 253.58 96.6102 253.746C96.8355 254.008 97.117 254.216 97.4338 254.354C97.7506 254.492 98.0946 254.557 98.4402 254.545C98.7361 254.552 99.0318 254.522 99.3202 254.455C99.423 253.965 99.6744 253.519 100.04 253.176C100.212 253.028 100.413 252.916 100.629 252.848C100.846 252.779 101.074 252.755 101.3 252.777C101.384 252.798 101.462 252.837 101.528 252.892C101.594 252.948 101.646 253.018 101.68 253.097C101.709 253.181 101.715 253.272 101.697 253.36C101.68 253.447 101.639 253.529 101.58 253.596C101.034 254.142 100.338 254.513 99.5802 254.664C99.4512 255.141 99.4422 255.642 99.5538 256.123C99.6655 256.604 99.8944 257.049 100.22 257.421C100.422 257.6 100.661 257.733 100.921 257.809C101.18 257.885 101.453 257.903 101.72 257.86C101.926 257.846 102.125 257.781 102.299 257.671C102.474 257.561 102.618 257.41 102.72 257.231L102.83 257.021L102.94 257.231C103.136 257.546 103.429 257.789 103.775 257.924C104.121 258.059 104.502 258.079 104.86 257.98C105.594 257.748 106.226 257.272 106.65 256.632C107.061 256.127 107.296 255.504 107.32 254.854L106.85 254.794C106.483 254.731 106.136 254.585 105.834 254.367C105.532 254.149 105.285 253.864 105.11 253.536C105.058 253.443 105.03 253.338 105.03 253.231C105.03 253.125 105.058 253.02 105.11 252.927C105.178 252.834 105.273 252.763 105.382 252.724C105.49 252.685 105.608 252.679 105.72 252.707C106.109 252.81 106.468 253.003 106.769 253.27C107.069 253.538 107.302 253.871 107.45 254.245C107.486 254.363 107.513 254.483 107.53 254.605C108.086 254.616 108.626 254.424 109.05 254.065C109.202 253.921 109.323 253.748 109.406 253.555C109.488 253.363 109.531 253.156 109.53 252.947C109.532 252.789 109.502 252.633 109.442 252.487C109.382 252.341 109.293 252.209 109.18 252.098L109.06 251.998L109.19 251.908C109.49 251.681 109.715 251.369 109.836 251.013C109.957 250.658 109.969 250.274 109.87 249.911C109.761 249.549 109.576 249.214 109.327 248.929C109.079 248.643 108.774 248.413 108.43 248.253C107.728 247.923 106.955 247.772 106.18 247.814C105.426 247.831 104.677 247.941 103.95 248.144C104.115 248.87 104.115 249.624 103.95 250.35C103.847 250.789 103.627 251.191 103.314 251.514C103 251.837 102.605 252.07 102.17 252.188C101.896 252.261 101.606 252.242 101.343 252.134C101.081 252.025 100.862 251.834 100.72 251.589C100.559 251.234 100.505 250.84 100.566 250.454C100.626 250.069 100.798 249.71 101.06 249.422C101.775 248.733 102.652 248.236 103.61 247.974C103.61 247.874 103.56 247.764 103.54 247.664C103.259 246.519 102.898 245.394 102.46 244.299C102.372 244.391 102.288 244.487 102.21 244.589L102.15 244.678L102.06 244.628C101.525 244.273 100.874 244.134 100.24 244.239C99.9545 244.353 99.7032 244.539 99.5105 244.779C99.3178 245.019 99.1903 245.304 99.1402 245.607C99.0199 246.065 99.0199 246.547 99.1402 247.005L99.1002 247.045ZM107.8 238.457C107.808 238.442 107.812 238.425 107.812 238.407C107.812 238.39 107.808 238.373 107.8 238.357C107.6 237.778 103.55 237.039 100.62 236.749C101.373 237.311 102.197 237.771 103.07 238.118C104.47 238.657 107.07 239.036 107.74 238.477L107.8 238.457ZM96.9302 235.681C94.9567 233.566 92.6577 231.779 90.1202 230.388C89.8002 230.209 89.5702 230.209 89.5102 230.269C89.5102 230.328 89.5102 230.488 89.6602 230.738C90.0401 231.302 90.483 231.821 90.9802 232.286C91.9985 233.229 93.151 234.016 94.4002 234.622C95.2194 235.03 96.0646 235.384 96.9302 235.681ZM88.9302 229.02C88.9457 229.012 88.9628 229.008 88.9802 229.008C88.9976 229.008 89.0147 229.012 89.0302 229.02C90.9134 229.275 92.7184 229.936 94.3202 230.958C95.7746 231.969 97.0893 233.168 98.2302 234.523L98.5302 234.852C99.0705 235.442 99.6556 235.99 100.28 236.49H100.51C100.58 236.49 107.71 237.219 108.06 238.277C108.083 238.345 108.083 238.418 108.062 238.486C108.04 238.555 107.998 238.614 107.94 238.657C107.17 239.356 104.32 238.857 103.01 238.347C101.99 237.942 101.036 237.387 100.18 236.7C99.3444 236.597 98.5183 236.427 97.7102 236.19C99.5668 238.316 101.091 240.71 102.23 243.29C102.33 243.497 102.42 243.706 102.5 243.919C102.918 243.616 103.416 243.443 103.932 243.422C104.448 243.401 104.959 243.532 105.4 243.8C105.936 244.169 106.313 244.727 106.456 245.362C106.599 245.997 106.497 246.662 106.17 247.225C106.159 247.236 106.146 247.245 106.131 247.251C106.117 247.257 106.101 247.26 106.085 247.26C106.069 247.26 106.054 247.257 106.039 247.251C106.025 247.245 106.011 247.236 106 247.225C105.98 247.201 105.969 247.171 105.969 247.14C105.969 247.109 105.98 247.079 106 247.055C106.242 246.603 106.323 246.082 106.229 245.578C106.135 245.074 105.872 244.617 105.483 244.282C105.094 243.948 104.603 243.755 104.09 243.736C103.577 243.717 103.072 243.874 102.66 244.179C103.11 245.315 103.484 246.479 103.78 247.664C103.78 247.764 103.83 247.864 103.85 247.964C104.595 247.763 105.36 247.649 106.13 247.624C106.943 247.583 107.753 247.741 108.49 248.084C108.864 248.263 109.197 248.518 109.467 248.833C109.737 249.147 109.939 249.515 110.06 249.911C110.16 250.296 110.151 250.702 110.035 251.083C109.919 251.463 109.699 251.804 109.4 252.068C109.616 252.325 109.73 252.652 109.72 252.987C109.724 253.23 109.678 253.47 109.583 253.694C109.488 253.918 109.348 254.119 109.17 254.285C108.709 254.689 108.113 254.906 107.5 254.894C107.47 255.593 107.218 256.265 106.78 256.811C106.329 257.511 105.64 258.025 104.84 258.259C104.463 258.358 104.065 258.344 103.696 258.22C103.326 258.096 103.001 257.867 102.76 257.56C102.514 257.877 102.157 258.088 101.76 258.15C101.455 258.203 101.142 258.184 100.845 258.096C100.548 258.008 100.276 257.852 100.05 257.64C99.6992 257.259 99.4481 256.797 99.319 256.295C99.1899 255.793 99.1869 255.267 99.3102 254.764C99.0366 254.816 98.7585 254.839 98.4802 254.834C98.0989 254.842 97.7208 254.764 97.3744 254.604C97.028 254.445 96.7222 254.21 96.4802 253.915C96.3586 253.723 96.2789 253.507 96.2462 253.282C96.2135 253.056 96.2285 252.827 96.2902 252.607C96.4409 252.027 96.7959 251.52 97.2902 251.179C96.9904 250.999 96.7584 250.725 96.6302 250.4C96.521 250.143 96.4647 249.866 96.4647 249.587C96.4647 249.307 96.521 249.03 96.6302 248.773C96.8748 248.358 97.2028 247.998 97.5935 247.716C97.9842 247.435 98.4291 247.237 98.9002 247.135H98.9602C98.8297 246.637 98.8297 246.115 98.9602 245.617C99.0168 245.27 99.1641 244.945 99.3871 244.673C99.61 244.401 99.9009 244.193 100.23 244.069C100.886 243.943 101.566 244.071 102.13 244.429C102.219 244.319 102.316 244.215 102.42 244.119C102.33 243.89 102.23 243.65 102.13 243.42C100.943 240.739 99.3403 238.262 97.3802 236.08C96.3491 235.759 95.3459 235.355 94.3802 234.872C93.1089 234.256 91.9361 233.455 90.9002 232.495C90.3928 232.015 89.937 231.483 89.5402 230.908C89.2502 230.478 89.3102 230.249 89.4202 230.139C89.5302 230.029 89.9302 229.979 90.3302 230.199C93.0219 231.674 95.4457 233.592 97.5002 235.871C98.2923 236.115 99.1011 236.302 99.9202 236.43C99.4009 235.992 98.9099 235.522 98.4502 235.022L98.1502 234.692C97.0242 233.349 95.7225 232.164 94.2802 231.167C92.712 230.165 90.9447 229.514 89.1002 229.26C89.0834 229.259 89.0671 229.254 89.0523 229.246C89.0375 229.238 89.0245 229.228 89.0141 229.214C89.0037 229.201 88.9962 229.186 88.9921 229.17C88.988 229.154 88.9873 229.137 88.9902 229.12C88.9869 229.097 88.9869 229.073 88.9902 229.05L88.9302 229.02Z" fill="#BA225C"/>
<path d="M108.41 209.538C108.062 209.517 107.715 209.597 107.41 209.767C107.236 209.873 107.089 210.018 106.983 210.192C106.877 210.366 106.814 210.563 106.8 210.766C106.784 210.892 106.799 211.02 106.845 211.138C106.89 211.257 106.964 211.362 107.06 211.445C107.409 211.653 107.82 211.73 108.22 211.665C109.36 211.681 110.472 211.307 111.37 210.606C110.834 210.262 110.256 209.987 109.65 209.787C109.237 209.648 108.806 209.571 108.37 209.558L108.41 209.538ZM109.33 207.371H109.26C107.45 207.371 104.03 208.829 103.88 210.986C103.885 211.423 104.01 211.85 104.241 212.222C104.472 212.593 104.8 212.894 105.19 213.093C106.026 213.502 106.95 213.701 107.88 213.672C109.686 213.802 111.484 213.328 112.99 212.324L113.17 212.174C112.791 211.706 112.358 211.283 111.88 210.916C110.875 211.765 109.597 212.226 108.28 212.214C107.741 212.288 107.194 212.164 106.74 211.864C106.573 211.725 106.444 211.546 106.363 211.343C106.283 211.141 106.254 210.922 106.28 210.706C106.301 210.414 106.392 210.131 106.545 209.88C106.699 209.63 106.909 209.42 107.16 209.268C107.587 209.079 108.048 208.981 108.515 208.981C108.982 208.981 109.444 209.079 109.87 209.268C110.533 209.486 111.165 209.788 111.75 210.167C111.861 209.967 111.926 209.746 111.94 209.518C111.96 209.286 111.928 209.053 111.847 208.836C111.766 208.618 111.637 208.421 111.47 208.26C110.892 207.714 110.126 207.41 109.33 207.411V207.371ZM109.99 205.563C107.323 205.642 104.781 206.71 102.86 208.559C102.159 209.22 101.615 210.03 101.269 210.928C100.923 211.827 100.783 212.792 100.86 213.752C101.26 216.897 104.39 219.024 106.94 220.253C109.25 221.351 113.49 222.869 116.63 220.972C116.55 220.612 116.46 220.253 116.37 219.903C115.871 217.324 114.89 214.861 113.48 212.643L113.29 212.793C111.684 213.874 109.763 214.39 107.83 214.261C106.791 214.294 105.76 214.067 104.83 213.602C104.345 213.357 103.939 212.981 103.658 212.517C103.377 212.052 103.232 211.518 103.24 210.976C103.41 208.389 107.24 206.871 109.16 206.822C110.141 206.791 111.094 207.15 111.81 207.82C112.027 208.042 112.195 208.306 112.302 208.597C112.409 208.888 112.453 209.199 112.43 209.508C112.407 209.839 112.308 210.16 112.14 210.446C112.642 210.836 113.101 211.278 113.51 211.765C114.234 211.014 114.663 210.029 114.72 208.988C114.738 208.571 114.657 208.155 114.483 207.775C114.309 207.395 114.048 207.061 113.72 206.802C112.64 205.952 111.295 205.51 109.92 205.553L109.99 205.563ZM116.8 221.541C113.46 223.428 109.11 221.89 106.74 220.752C102.89 218.905 100.68 216.508 100.34 213.812C100.246 212.77 100.386 211.721 100.751 210.741C101.116 209.761 101.697 208.876 102.45 208.15C104.99 205.583 110.61 203.486 114.15 206.382C114.548 206.696 114.865 207.099 115.075 207.559C115.286 208.019 115.383 208.523 115.36 209.028C115.293 210.237 114.788 211.379 113.94 212.244C115.409 214.534 116.427 217.083 116.94 219.753L117.15 220.622C117.86 220.087 118.433 219.392 118.823 218.594C119.212 217.795 119.407 216.916 119.392 216.028C119.376 215.14 119.151 214.268 118.733 213.484C118.316 212.699 117.719 212.025 116.99 211.515C116.929 211.471 116.887 211.404 116.874 211.33C116.86 211.255 116.877 211.178 116.92 211.116C116.966 211.056 117.033 211.016 117.107 211.003C117.181 210.99 117.257 211.005 117.32 211.046C118.131 211.615 118.793 212.37 119.252 213.247C119.712 214.124 119.954 215.098 119.96 216.088C119.966 217.078 119.735 218.055 119.286 218.937C118.837 219.82 118.184 220.582 117.38 221.161L117.29 221.221C118.56 226.604 118.01 226.834 116.8 221.531V221.541Z" fill="#E85086"/>
<path d="M81.3001 151.708C80.9524 151.697 80.6078 151.776 80.3001 151.938C80.1291 152.046 79.9858 152.193 79.8817 152.366C79.7775 152.54 79.7153 152.735 79.7001 152.937C79.6848 153.061 79.7005 153.187 79.7459 153.304C79.7913 153.421 79.8649 153.524 79.9601 153.606C80.3087 153.813 80.7196 153.891 81.1201 153.825C82.259 153.845 83.3704 153.475 84.2701 152.777C83.7346 152.431 83.1565 152.156 82.5501 151.958C82.1356 151.81 81.7001 151.729 81.2601 151.718L81.3001 151.708ZM82.2301 149.541H82.1501C80.3401 149.591 76.9301 150.999 76.7801 153.166C76.7861 153.601 76.9103 154.025 77.1392 154.395C77.3682 154.764 77.6934 155.064 78.0801 155.263C78.9181 155.677 79.8459 155.876 80.7801 155.843C82.5865 155.977 84.3859 155.503 85.8901 154.495L86.0701 154.345C85.6884 153.882 85.2557 153.463 84.7801 153.097C83.7748 153.945 82.4964 154.403 81.1801 154.385C80.6425 154.463 80.0949 154.342 79.6401 154.045C79.4738 153.902 79.3443 153.722 79.2625 153.518C79.1807 153.315 79.149 153.095 79.1701 152.877C79.1955 152.586 79.2893 152.305 79.444 152.056C79.5986 151.808 79.8097 151.6 80.0601 151.449C80.4854 151.255 80.9475 151.154 81.4151 151.154C81.8827 151.154 82.3448 151.255 82.7701 151.449C83.4343 151.663 84.0666 151.965 84.6501 152.348C84.7597 152.147 84.8245 151.926 84.8401 151.698C84.858 151.466 84.8253 151.232 84.7442 151.013C84.663 150.794 84.5354 150.595 84.3701 150.43C83.7918 149.884 83.0259 149.581 82.2301 149.581V149.541ZM82.8901 147.734C80.2241 147.817 77.6838 148.885 75.7601 150.73C75.0593 151.391 74.5158 152.201 74.1697 153.099C73.8236 153.998 73.6836 154.963 73.7601 155.923C74.1601 159.078 77.2901 161.195 79.8401 162.423C82.1501 163.532 86.3901 165.04 89.5301 163.142C89.4401 162.783 89.3601 162.433 89.2701 162.074C88.7639 159.497 87.784 157.035 86.3801 154.814C86.3218 154.87 86.2581 154.92 86.1901 154.964C84.5875 156.053 82.6637 156.57 80.7301 156.432C79.6913 156.471 78.6594 156.248 77.7301 155.783C77.2471 155.534 76.8433 155.155 76.5642 154.689C76.285 154.223 76.1416 153.689 76.1501 153.146C76.3201 150.56 80.1501 149.052 82.0701 149.002C82.5546 148.985 83.0376 149.064 83.491 149.236C83.9443 149.407 84.3588 149.667 84.7101 150.001C84.9299 150.223 85.0997 150.489 85.2084 150.782C85.317 151.075 85.3619 151.387 85.3401 151.698C85.3139 152.029 85.2149 152.349 85.0501 152.637C85.5544 153.024 86.0139 153.466 86.4201 153.955C87.1394 153.203 87.5651 152.218 87.6201 151.179C87.6381 150.76 87.557 150.343 87.3832 149.961C87.2095 149.58 86.948 149.244 86.6201 148.982C85.538 148.136 84.1938 147.695 82.8201 147.734H82.8901ZM89.6601 163.692C86.3101 165.589 81.9701 164.041 79.6001 162.903C75.7501 161.065 73.5401 158.659 73.2001 155.963C73.1054 154.921 73.2457 153.872 73.6109 152.892C73.9761 151.912 74.5567 151.027 75.3101 150.3C77.8501 147.744 83.4701 145.637 87.0101 148.533C87.4071 148.847 87.7238 149.251 87.9341 149.711C88.1445 150.171 88.2425 150.674 88.2201 151.179C88.159 152.389 87.6534 153.534 86.8001 154.395C88.2644 156.691 89.2821 159.242 89.8001 161.914L90.0101 162.773C90.72 162.238 91.2932 161.543 91.6828 160.744C92.0723 159.946 92.2673 159.067 92.2517 158.179C92.2361 157.291 92.0104 156.419 91.593 155.635C91.1756 154.85 90.5784 154.176 89.8501 153.666C89.8199 153.645 89.7941 153.618 89.7743 153.587C89.7544 153.556 89.7408 153.522 89.7343 153.485C89.7212 153.412 89.7377 153.337 89.7801 153.276C89.8225 153.215 89.8875 153.174 89.9606 153.161C90.0337 153.148 90.1091 153.164 90.1701 153.206C90.9792 153.776 91.6406 154.529 92.0994 155.405C92.5582 156.281 92.8011 157.253 92.8079 158.241C92.8148 159.23 92.5854 160.205 92.1387 161.087C91.6921 161.969 91.0412 162.732 90.2401 163.312L90.1501 163.372C91.4501 168.685 90.9101 168.964 89.6601 163.692Z" fill="#9A1B48"/>
<path d="M99.4701 91.2531C99.1217 91.2339 98.775 91.3136 98.4701 91.4827C98.2969 91.5886 98.1519 91.7347 98.0474 91.9086C97.9429 92.0824 97.8821 92.2789 97.8701 92.4814C97.8536 92.6063 97.8678 92.7334 97.9113 92.8516C97.9549 92.9699 98.0265 93.0758 98.1201 93.1604C98.4727 93.3671 98.8863 93.4448 99.2901 93.3801C100.427 93.394 101.534 93.0206 102.43 92.3216C101.899 91.977 101.324 91.7049 100.72 91.5127C100.306 91.3647 99.8701 91.2838 99.4301 91.273L99.4701 91.2531ZM100.4 89.0861H100.32C98.5101 89.0861 95.1001 90.5441 94.9501 92.711C94.9561 93.1454 95.0802 93.57 95.3092 93.9394C95.5382 94.3087 95.8634 94.609 96.2501 94.8081C97.0881 95.2216 98.0159 95.4206 98.9501 95.3873C100.753 95.5188 102.548 95.0443 104.05 94.0392L104.24 93.8894C103.852 93.4255 103.416 93.0038 102.94 92.6311C101.941 93.4844 100.665 93.9458 99.3501 93.9293C98.8112 94.0043 98.2635 93.88 97.8101 93.5798C97.6397 93.4424 97.5072 93.264 97.425 93.0614C97.3427 92.8587 97.3135 92.6385 97.3401 92.4214C97.3655 92.1289 97.4592 91.8465 97.6138 91.5967C97.7684 91.347 97.9794 91.137 98.2301 90.9834C98.6562 90.7925 99.118 90.6938 99.5851 90.6938C100.052 90.6938 100.514 90.7925 100.94 90.9834C101.603 91.1999 102.235 91.502 102.82 91.8822C102.925 91.6767 102.99 91.4529 103.01 91.2231C103.025 90.9921 102.991 90.7606 102.91 90.5437C102.829 90.3268 102.703 90.1295 102.54 89.9649C101.962 89.4189 101.196 89.1152 100.4 89.1161V89.0861ZM101.06 87.2786C98.3906 87.3595 95.8463 88.4271 93.9201 90.2744C93.2181 90.9348 92.6738 91.7444 92.3276 92.6433C91.9814 93.5421 91.8421 94.5073 91.9201 95.4672C92.3101 98.6228 95.4401 100.74 98.0001 101.968C100.3 103.077 104.54 104.584 107.69 102.687C107.6 102.328 107.51 101.968 107.43 101.619C106.919 99.0426 105.94 96.5819 104.54 94.3587L104.35 94.5085C102.743 95.5878 100.823 96.1041 98.8901 95.9765C97.8522 96.0059 96.8227 95.7832 95.8901 95.3274C95.4067 95.0779 95.0021 94.6994 94.7214 94.2339C94.4407 93.7685 94.2948 93.2344 94.3001 92.6911C94.4801 90.1047 98.3001 88.5868 100.23 88.5369C100.714 88.5216 101.197 88.6019 101.65 88.7733C102.103 88.9447 102.517 89.2037 102.87 89.5355C103.091 89.756 103.261 90.0223 103.369 90.3156C103.476 90.6089 103.517 90.9221 103.49 91.2331C103.472 91.5636 103.376 91.8852 103.21 92.1718C103.717 92.5563 104.176 92.9987 104.58 93.4899C105.299 92.7374 105.725 91.7526 105.78 90.7138C105.797 90.295 105.716 89.878 105.542 89.4964C105.368 89.1148 105.107 88.7793 104.78 88.5169C103.699 87.6686 102.354 87.2267 100.98 87.2686L101.06 87.2786ZM107.87 103.256C104.52 105.144 100.18 103.606 97.8001 102.467C93.9601 100.62 91.7401 98.2233 91.4101 95.4772C91.3153 94.4359 91.4557 93.3866 91.8209 92.4067C92.1861 91.4268 92.7667 90.5412 93.5201 89.8151C96.0601 87.2587 101.68 85.1516 105.22 88.0476C105.615 88.3637 105.93 88.7677 106.14 89.2272C106.35 89.6868 106.449 90.189 106.43 90.6939C106.363 91.9021 105.858 93.0448 105.01 93.9093C106.474 96.2018 107.492 98.7495 108.01 101.419L108.22 102.288C108.926 101.75 109.496 101.054 109.883 100.256C110.27 99.458 110.463 98.5802 110.448 97.6936C110.432 96.807 110.208 95.9365 109.793 95.1525C109.378 94.3685 108.785 93.6929 108.06 93.1804C107.998 93.1362 107.956 93.0696 107.943 92.9949C107.93 92.9202 107.947 92.8434 107.99 92.7809C108.034 92.7216 108.1 92.6819 108.173 92.6707C108.246 92.6595 108.32 92.6776 108.38 92.721C109.191 93.2896 109.853 94.0435 110.312 94.9198C110.772 95.7961 111.014 96.7695 111.02 97.7585C111.026 98.7476 110.795 99.7237 110.346 100.605C109.897 101.487 109.244 102.249 108.44 102.827L108.36 102.887C109.66 108.319 109.08 108.549 107.87 103.246V103.256Z" fill="#C16A8C"/>
<path d="M60.5501 85.0517C60.2025 85.0401 59.8578 85.1192 59.5501 85.2813C59.3792 85.3896 59.2359 85.5363 59.1317 85.7097C59.0275 85.883 58.9654 86.0783 58.9501 86.2799C58.9349 86.4057 58.9506 86.5333 58.9959 86.6516C59.0412 86.7699 59.1148 86.8754 59.2101 86.959C59.5621 87.1575 59.9698 87.2347 60.3701 87.1787C61.5103 87.1948 62.6217 86.8214 63.5201 86.1202C62.9846 85.7741 62.4065 85.4989 61.8001 85.3013C61.3857 85.1533 60.9502 85.0724 60.5101 85.0616L60.5501 85.0517ZM61.4801 82.8847H61.4001C59.5901 82.8847 56.1801 84.3426 56.0301 86.4996C56.0376 86.935 56.1622 87.3604 56.3909 87.7311C56.6197 88.1018 56.9441 88.4043 57.3301 88.6067C58.1705 89.0125 59.0972 89.2078 60.0301 89.1759C61.84 89.3017 63.6397 88.8164 65.1401 87.7978L65.3201 87.658C64.9375 87.1893 64.5012 86.767 64.0201 86.3998C63.0198 87.2502 61.7437 87.7081 60.4301 87.688C59.8924 87.7707 59.3431 87.6496 58.8901 87.3484C58.7238 87.2055 58.5943 87.0248 58.5125 86.8215C58.4307 86.6181 58.3991 86.3982 58.4201 86.1801C58.4455 85.8889 58.5393 85.6078 58.694 85.3597C58.8486 85.1116 59.0597 84.9034 59.3101 84.7521C59.7361 84.5605 60.198 84.4615 60.6651 84.4615C61.1323 84.4615 61.5942 84.5605 62.0201 84.7521C62.6843 84.9662 63.3166 85.2685 63.9001 85.6508C64.0662 85.3454 64.1286 84.9944 64.0781 84.6506C64.0277 84.3067 63.867 83.9885 63.6201 83.7435C63.0457 83.1904 62.2781 82.8823 61.4801 82.8847ZM62.1401 81.0772C59.4742 81.1606 56.9338 82.228 55.0101 84.073C54.3093 84.7343 53.7658 85.544 53.4197 86.4426C53.0736 87.3413 52.9336 88.306 53.0101 89.2658C53.4101 92.4213 56.5401 94.5484 59.0901 95.7667C61.4001 96.8751 65.6401 98.383 68.7801 96.4857C68.6901 96.1262 68.6101 95.7767 68.5201 95.4172C68.0255 92.8349 67.0558 90.3666 65.6601 88.1373L65.4701 88.2971C63.8721 89.3904 61.9534 89.9177 60.0201 89.795C58.9813 89.8345 57.9494 89.6112 57.0201 89.1459C56.5372 88.8969 56.1334 88.5182 55.8542 88.0524C55.5751 87.5867 55.4317 87.0523 55.4401 86.5096C55.6101 83.9232 59.4401 82.4153 61.3601 82.3654C61.8446 82.3479 62.3277 82.4272 62.781 82.5987C63.2344 82.7702 63.6489 83.0304 64.0001 83.364C64.2199 83.586 64.3898 83.8523 64.4984 84.145C64.607 84.4377 64.6519 84.7502 64.6301 85.0616C64.604 85.3921 64.505 85.7126 64.3401 86.0003C64.8444 86.3875 65.3039 86.8296 65.7101 87.3185C66.4309 86.567 66.8568 85.5816 66.9101 84.5424C66.9258 84.1238 66.8436 83.7073 66.67 83.3259C66.4964 82.9446 66.2363 82.6089 65.9101 82.3454C64.8281 81.4994 63.4838 81.0578 62.1101 81.0972L62.1401 81.0772ZM68.9501 97.0549C65.6001 98.9522 61.2601 97.4044 58.8901 96.266C55.0401 94.4285 52.8301 92.0219 52.4901 89.2757C52.3954 88.2345 52.5358 87.1852 52.901 86.2053C53.2661 85.2254 53.8468 84.3398 54.6001 83.6137C57.1401 81.0572 62.7601 78.9502 66.3001 81.8461C66.6971 82.1601 67.0138 82.5638 67.2242 83.0238C67.4345 83.4839 67.5325 83.9872 67.5101 84.4924C67.4712 85.7336 66.964 86.9143 66.0901 87.7978C67.5544 90.0938 68.5722 92.6448 69.0901 95.3173L69.3001 96.1761C70.0101 95.641 70.5832 94.9459 70.9728 94.1474C71.3624 93.349 71.5573 92.4698 71.5417 91.5818C71.5261 90.6937 71.3004 89.822 70.883 89.0376C70.4656 88.2533 69.8684 87.5787 69.1401 87.0688C69.0791 87.0265 69.0375 86.9616 69.0244 86.8886C69.0112 86.8155 69.0277 86.7403 69.0701 86.6794C69.1126 86.6185 69.1775 86.5769 69.2506 86.5638C69.3238 86.5507 69.3991 86.5671 69.4601 86.6095C70.2706 87.178 70.9331 87.932 71.3923 88.8083C71.8516 89.6846 72.0943 90.6579 72.1001 91.6469C72.106 92.636 71.8749 93.6121 71.4261 94.4938C70.9773 95.3755 70.3238 96.1372 69.5201 96.7153L69.4401 96.7753C70.6601 102.118 70.1601 102.357 68.9501 97.0449V97.0549Z" fill="#C16A8C"/>
<path d="M51.3903 40.2046C51.3114 40.2968 51.2379 40.3935 51.1703 40.4942C50.9948 40.7475 50.8785 41.0369 50.8301 41.3411C50.7816 41.6453 50.8022 41.9565 50.8903 42.2517C50.8903 42.3516 51.0203 42.4814 51.1403 42.5013C51.2042 42.5061 51.2682 42.4926 51.3248 42.4626C51.3814 42.4325 51.4284 42.3871 51.4603 42.3316C51.6141 42.0392 51.7003 41.716 51.7124 41.3859C51.7245 41.0558 51.6623 40.7271 51.5303 40.4243C51.4919 40.3461 51.4449 40.2724 51.3903 40.2046ZM46.6003 45.4073C46.9232 45.598 47.2957 45.6883 47.6703 45.6669C47.8457 45.6537 48.0167 45.6054 48.1731 45.5247C48.3294 45.4441 48.4679 45.3328 48.5803 45.1976C48.5995 45.1606 48.6096 45.1195 48.6096 45.0777C48.6096 45.036 48.5995 44.9949 48.5803 44.9579C48.5803 44.9579 48.5803 44.8581 48.3603 44.8281C47.7242 44.8505 47.1074 45.0512 46.5803 45.4073H46.6003ZM50.8403 45.0278C50.4858 45.0139 50.1359 45.1117 49.8403 45.3074C49.6575 45.4184 49.5151 45.5849 49.4341 45.7827C49.3531 45.9804 49.3377 46.1988 49.3903 46.4059C49.5058 46.695 49.704 46.9437 49.96 47.1213C50.216 47.2988 50.5186 47.3973 50.8303 47.4045C51.7076 47.3692 52.5627 47.1189 53.3203 46.6755C52.9767 46.123 52.5158 45.6526 51.9703 45.2974C51.621 45.106 51.2287 45.0063 50.8303 45.0078L50.8403 45.0278ZM52.0403 48.3032C51.9939 48.2954 51.9466 48.2954 51.9003 48.3032C51.5976 48.4164 51.3431 48.6299 51.1793 48.908C51.0154 49.1861 50.9522 49.512 51.0003 49.8311C51.0216 49.9756 51.0619 50.1166 51.1203 50.2505C51.4187 50.0721 51.6727 49.8285 51.8633 49.5379C52.0538 49.2473 52.1759 48.9174 52.2203 48.5729C52.2307 48.5033 52.2307 48.4327 52.2203 48.3632C52.2037 48.3363 52.1799 48.3146 52.1516 48.3005C52.1234 48.2864 52.0917 48.2804 52.0603 48.2833L52.0403 48.3032ZM51.2203 50.4802C51.4427 50.8637 51.7638 51.1809 52.1503 51.3989C52.3858 51.558 52.6578 51.6551 52.941 51.6813C53.2242 51.7075 53.5094 51.6619 53.7703 51.5487C54.2457 51.1926 54.5647 50.6665 54.6603 50.0807V49.9909H54.7603C54.8798 50.0057 55.0007 50.0057 55.1203 49.9909C54.6989 49.007 54.2111 48.0528 53.6603 47.1349L53.4603 46.8553C52.6627 47.3209 51.7633 47.5849 50.8403 47.6242C50.4763 47.6146 50.1235 47.4963 49.8276 47.2845C49.5317 47.0726 49.3062 46.777 49.1803 46.4358C49.1039 46.1844 49.1147 45.9145 49.2109 45.6699C49.307 45.4253 49.483 45.2202 49.7103 45.0877C50.0696 44.872 50.481 44.7581 50.9003 44.7581C51.3195 44.7581 51.7309 44.872 52.0903 45.0877C52.6744 45.4546 53.167 45.9498 53.5303 46.5357C54.1354 46.1807 54.696 45.755 55.2003 45.2675C55.723 44.7736 56.1236 44.1651 56.3703 43.49C56.4757 43.1616 56.5132 42.8152 56.4805 42.4719C56.4479 42.1286 56.3457 41.7955 56.1803 41.4928C56.0043 41.1969 55.7433 40.9607 55.4313 40.8147C55.1193 40.6687 54.7705 40.6196 54.4303 40.6739H54.2803V40.5241C54.2844 40.3773 54.2561 40.2314 54.1974 40.0967C54.1386 39.9621 54.0508 39.8421 53.9403 39.7452C53.8 39.6097 53.6339 39.5036 53.4518 39.4333C53.2697 39.3629 53.0754 39.3298 52.8803 39.3358C52.3675 39.3831 51.8904 39.6178 51.5403 39.9949C51.6096 40.0853 51.6698 40.1823 51.7203 40.2844C51.8847 40.6258 51.9651 41.0015 51.9546 41.3802C51.9442 41.7589 51.8433 42.1296 51.6603 42.4614C51.607 42.554 51.5269 42.6284 51.4305 42.6748C51.3342 42.7211 51.226 42.7372 51.1203 42.721C51.0214 42.7014 50.9295 42.6559 50.854 42.5893C50.7784 42.5226 50.7219 42.4371 50.6903 42.3416C50.5808 42.0089 50.5501 41.6555 50.6004 41.309C50.6507 40.9624 50.7807 40.6323 50.9803 40.3444C51.0703 40.2245 51.1603 40.1047 51.2503 40.0048C50.8062 39.6136 50.2497 39.3724 49.6603 39.3158C48.9539 39.1858 48.2243 39.2985 47.5903 39.6354C47.2941 39.81 47.0623 40.0753 46.929 40.3918C46.7957 40.7084 46.7681 41.0594 46.8503 41.3929L46.9203 41.6026L46.6603 41.5427C46.4788 41.4966 46.2889 41.4942 46.1063 41.5359C45.9237 41.5776 45.7537 41.6621 45.6103 41.7824C45.4083 41.9333 45.2425 42.1271 45.1249 42.3499C45.0073 42.5728 44.9408 42.8189 44.9303 43.0706C44.9709 43.5268 45.1224 43.9663 45.3716 44.3508C45.6208 44.7354 45.9601 45.0535 46.3603 45.2775C46.9477 44.8639 47.6421 44.6281 48.3603 44.5984C48.4446 44.6051 48.5257 44.6334 48.5958 44.6806C48.6659 44.7279 48.7225 44.7924 48.7603 44.868C48.7947 44.938 48.8126 45.0148 48.8126 45.0927C48.8126 45.1706 48.7947 45.2475 48.7603 45.3174C48.6244 45.4786 48.4565 45.6098 48.2671 45.7026C48.0777 45.7955 47.871 45.8479 47.6603 45.8567C47.1978 45.8794 46.7397 45.7572 46.3503 45.5071C46.1149 45.6552 45.8998 45.8331 45.7103 46.0364C45.4734 46.271 45.2942 46.5571 45.1866 46.8724C45.079 47.1878 45.046 47.5237 45.0903 47.8539C45.1341 48.0286 45.2135 48.1924 45.3236 48.335C45.4338 48.4776 45.5722 48.596 45.7303 48.6827C45.9746 48.8236 46.2448 48.914 46.5249 48.9483C46.805 48.9826 47.0891 48.9602 47.3603 48.8824L47.6003 48.8225L47.4903 49.0422C47.4196 49.1992 47.3831 49.3694 47.3831 49.5415C47.3831 49.7136 47.4196 49.8838 47.4903 50.0408C47.5869 50.2507 47.7255 50.4386 47.8974 50.5932C48.0694 50.7477 48.2711 50.8656 48.4903 50.9395C48.8936 51.0354 49.3124 51.0467 49.7203 50.9728C50.1282 50.8989 50.5164 50.7414 50.8603 50.5101H50.9203C50.8493 50.3445 50.8021 50.1697 50.7803 49.9909C50.7193 49.6252 50.7852 49.2496 50.967 48.9264C51.1489 48.6032 51.4358 48.3516 51.7803 48.2134C52.1503 48.1035 52.3003 48.2833 52.3503 48.3931C52.4001 48.4953 52.4175 48.6103 52.4003 48.7226C52.3524 49.1073 52.2166 49.4757 52.0033 49.7996C51.79 50.1234 51.505 50.3938 51.1703 50.59L51.2203 50.4802ZM62.5803 50.2505C61.8003 50.2505 60.3403 52.3076 59.7903 53.5858C59.4592 54.3958 59.234 55.2449 59.1203 56.1123C60.8203 53.9753 62.9603 50.7997 62.7003 50.2905C62.6848 50.2826 62.6676 50.2784 62.6503 50.2784C62.6329 50.2784 62.6157 50.2826 62.6003 50.2905L62.5803 50.2505ZM57.4003 59.2379C57.0363 60.0046 56.7256 60.7954 56.4703 61.6046C56.0609 62.8259 55.8384 64.1018 55.8103 65.3893C55.8073 66.0229 55.8676 66.6551 55.9903 67.2767C56.0503 67.5563 56.1403 67.6761 56.2103 67.6761C56.2903 67.6761 56.4303 67.5263 56.5303 67.1968C57.2415 64.5966 57.5352 61.9001 57.4003 59.208V59.2379ZM56.6603 68.9144H56.5903C56.5794 68.9041 56.5707 68.8918 56.5647 68.878C56.5588 68.8643 56.5558 68.8495 56.5558 68.8345C56.5558 68.8196 56.5588 68.8048 56.5647 68.791C56.5707 68.7773 56.5794 68.7649 56.5903 68.7546C57.611 67.3538 58.3171 65.7494 58.6603 64.0512C58.9307 62.4444 58.9812 60.8084 58.8103 59.188V58.7786C58.7702 58.1501 58.7702 57.5197 58.8103 56.8912C58.3647 57.5267 57.967 58.1942 57.6203 58.8884C57.8137 61.7289 57.5264 64.5816 56.7703 67.3266C56.6603 67.7361 56.4403 67.9857 56.2203 67.9757C56.0003 67.9657 55.8803 67.8659 55.7803 67.3965C55.6581 66.758 55.5978 66.1093 55.6003 65.4592C55.6317 64.1484 55.8575 62.8494 56.2703 61.6046C56.5641 60.6553 56.9319 59.7305 57.3703 58.8385C57.1911 56.1177 56.5732 53.4436 55.5403 50.9196C55.4603 50.7099 55.3603 50.4902 55.2703 50.2805C55.1371 50.2903 55.0034 50.2903 54.8703 50.2805C54.7397 50.8885 54.3821 51.4241 53.8703 51.7784C53.5746 51.9125 53.2495 51.9692 52.9258 51.943C52.6021 51.9168 52.2904 51.8086 52.0203 51.6286C51.6052 51.3888 51.2603 51.0445 51.0203 50.63H50.9703C50.5987 50.8796 50.1793 51.0493 49.7386 51.1283C49.2979 51.2074 48.8455 51.1941 48.4103 51.0893C48.166 51.0066 47.9409 50.8755 47.7485 50.7039C47.556 50.5323 47.4002 50.3238 47.2903 50.0907C47.1531 49.7975 47.1213 49.466 47.2003 49.152C46.6679 49.2227 46.1271 49.1175 45.6603 48.8525C45.473 48.7481 45.3101 48.605 45.1825 48.4328C45.0549 48.2606 44.9655 48.0632 44.9203 47.8539C44.881 47.499 44.9237 47.1399 45.045 46.8041C45.1663 46.4682 45.3631 46.1646 45.6203 45.9166C45.7963 45.7244 45.9944 45.5535 46.2103 45.4073C45.7927 45.1643 45.4418 44.822 45.1888 44.4108C44.9358 43.9996 44.7886 43.5324 44.7603 43.0506C44.7719 42.7643 44.847 42.4841 44.9801 42.2302C45.1133 41.9764 45.3012 41.7552 45.5303 41.5826C45.6776 41.4634 45.8471 41.3747 46.0291 41.3215C46.2111 41.2684 46.4018 41.2519 46.5903 41.2731C46.5427 40.9135 46.6017 40.5479 46.7599 40.2213C46.918 39.8948 47.1685 39.6217 47.4803 39.4356C48.1435 39.0678 48.915 38.9442 49.6603 39.0861C50.3103 39.1512 50.923 39.4204 51.4103 39.855C51.7956 39.4381 52.324 39.1814 52.8903 39.1361C53.1177 39.1233 53.3452 39.1595 53.5574 39.2422C53.7696 39.3249 53.9616 39.4522 54.1203 39.6154C54.3506 39.8265 54.4963 40.1139 54.5303 40.4243C54.9027 40.4008 55.2743 40.4819 55.603 40.6584C55.9317 40.8349 56.2044 41.0997 56.3903 41.4229C56.5769 41.7596 56.6918 42.1312 56.728 42.5144C56.7641 42.8976 56.7206 43.2841 56.6003 43.6497C56.3434 44.3632 55.922 45.0063 55.3703 45.5271C54.8564 46.0121 54.2816 46.4284 53.6603 46.7654L53.8103 47.015C54.4161 47.9733 54.9508 48.9746 55.4103 50.0108C55.8475 49.9453 56.2556 49.7519 56.583 49.4551C56.9105 49.1584 57.1426 48.7715 57.2503 48.3432C57.3392 47.8058 57.226 47.2546 56.9325 46.7956C56.6389 46.3366 56.1858 46.0022 55.6603 45.8567C55.6423 45.862 55.6234 45.8631 55.605 45.8598C55.5866 45.8566 55.5692 45.849 55.5543 45.8379C55.5393 45.8267 55.5271 45.8122 55.5187 45.7956C55.5103 45.7789 55.506 45.7605 55.506 45.7418C55.506 45.7232 55.5103 45.7047 55.5187 45.6881C55.5271 45.6714 55.5393 45.6569 55.5543 45.6457C55.5692 45.6346 55.5866 45.6271 55.605 45.6238C55.6234 45.6206 55.6423 45.6216 55.6603 45.627C56.1983 45.7396 56.6792 46.0386 57.0178 46.4711C57.3564 46.9036 57.531 47.4417 57.5107 47.9904C57.4903 48.539 57.2764 49.0627 56.9066 49.469C56.5369 49.8753 56.0352 50.138 55.4903 50.2106C55.5803 50.4103 55.6603 50.6 55.7403 50.7997C56.7273 53.2296 57.3376 55.7955 57.5503 58.4091C57.9179 57.7118 58.3392 57.0441 58.8103 56.4119C58.9012 55.3823 59.1473 54.3723 59.5403 53.4161C60.0503 52.2277 61.5403 50.0009 62.5403 49.9409C62.6065 49.9299 62.6745 49.9392 62.7353 49.9678C62.796 49.9963 62.8466 50.0427 62.8803 50.1007C63.3603 51.0294 59.2303 56.2421 59.1803 56.2921L59.0503 56.4618C58.9947 57.2031 58.9947 57.9474 59.0503 58.6887V59.0981C59.2147 60.7387 59.1642 62.3937 58.9003 64.0212C58.5431 65.7471 57.8165 67.3754 56.7703 68.7946C56.7561 68.8009 56.7408 68.8042 56.7253 68.8042C56.7097 68.8042 56.6944 68.8009 56.6803 68.7946L56.6603 68.9144Z" fill="#BA225C"/>
<path d="M41.3102 156.771C40.9378 156.826 40.59 156.989 40.3102 157.241C38.9656 158.378 37.855 159.765 37.0402 161.325V161.395C35.2159 164.257 34.0554 167.49 33.6436 170.857C33.2318 174.225 33.5792 177.642 34.6602 180.858C37.6563 176.9 39.8567 172.4 41.1402 167.606C41.7779 165.158 42.1368 162.646 42.2102 160.117C42.2802 157.62 41.6802 156.831 41.3502 156.771H41.3102Z" fill="#24B574"/>
<path d="M111.66 164.131C111.305 164.194 110.976 164.357 110.71 164.6C109.363 165.735 108.252 167.123 107.44 168.685V168.755C105.618 171.617 104.458 174.85 104.045 178.217C103.631 181.583 103.975 185 105.05 188.217C108.053 184.262 110.257 179.761 111.54 174.966C112.179 172.518 112.535 170.005 112.6 167.476C112.67 164.98 112.07 164.191 111.75 164.131H111.66Z" fill="#24B574"/>
<path d="M74.3703 180.518C73.7103 185.93 74.1003 191.772 77.3703 197.015C77.63 197.491 78.0634 197.849 78.5803 198.014C78.7227 198.064 78.878 198.064 79.0203 198.014C79.1545 197.914 79.2613 197.782 79.3312 197.63C79.4011 197.478 79.4317 197.311 79.4203 197.145C79.7535 192.249 78.5737 187.369 76.0403 183.164C75.5303 182.286 74.9503 181.417 74.3403 180.568L74.3703 180.518Z" fill="#24B574"/>
<path d="M29.4403 231.097C29.0679 231.152 28.72 231.315 28.4403 231.567C27.0956 232.704 25.9851 234.091 25.1703 235.651V235.721C23.3443 238.582 22.1821 241.815 21.7686 245.182C21.355 248.55 21.7007 251.967 22.7803 255.184C25.7763 251.226 27.9768 246.726 29.2603 241.932C29.898 239.484 30.2569 236.971 30.3303 234.443C30.4003 231.946 29.8003 231.167 29.4703 231.097H29.4403Z" fill="#24B574"/>
<path d="M74.7199 228.032C74.0599 233.444 74.4499 239.286 77.7199 244.529C77.9873 244.998 78.4178 245.353 78.9299 245.527C79.0779 245.563 79.2336 245.545 79.3699 245.477C79.6799 245.328 79.7499 244.958 79.7799 244.609C80.1086 239.713 78.9291 234.835 76.3999 230.628C75.8799 229.749 75.3099 228.881 74.6999 228.032H74.7199Z" fill="#24B574"/>
<path d="M85.4504 44.8579C85.0784 44.9203 84.7318 45.0865 84.4504 45.3372C83.1067 46.4714 81.9962 47.855 81.1804 49.4115V49.4914C79.3539 52.3504 78.1913 55.5814 77.7778 58.9474C77.3642 62.3134 77.7102 65.7291 78.7904 68.9442C81.7864 64.986 83.9869 60.4861 85.2704 55.6928C85.9081 53.2444 86.267 50.732 86.3404 48.2032C86.4104 45.7167 85.8104 44.9278 85.4804 44.8579H85.4504Z" fill="#24B574"/>
<path d="M44.66 58.8984C44.2881 58.9609 43.9414 59.127 43.66 59.3778C42.3187 60.5116 41.2114 61.8954 40.4 63.4521V63.532C38.5762 66.3921 37.4152 69.6229 37.0017 72.9884C36.5882 76.3539 36.9327 79.7692 38.01 82.9848C41.0031 79.027 43.2064 74.5316 44.5 69.7433C45.1386 67.2954 45.4942 64.7825 45.56 62.2537C45.63 59.7572 45.03 58.9683 44.71 58.8984H44.66Z" fill="#24B574"/>
<path d="M80.0403 109.887C79.3803 115.309 79.7703 121.141 83.0403 126.384C83.3076 126.853 83.7381 127.209 84.2502 127.382C84.3982 127.418 84.554 127.4 84.6903 127.333C85.0003 127.183 85.0703 126.813 85.1003 126.464C85.4289 121.568 84.2494 116.69 81.7203 112.483C81.2003 111.605 80.6303 110.746 80.0203 109.887H80.0403Z" fill="#24B574"/>
<path d="M93.03 30.7377C93.34 31.7601 93.7175 32.7609 94.16 33.7335C94.7643 35.1236 95.856 36.2457 97.23 36.8891C97.3681 36.9407 97.5159 36.9612 97.6629 36.9491C97.8098 36.9371 97.9523 36.8927 98.08 36.8192C98.1371 36.775 98.1818 36.7169 98.2099 36.6504C98.2379 36.5839 98.2483 36.5113 98.24 36.4397C98.24 35.3312 96.49 32.9546 95.14 31.9859C94.4681 31.5072 93.763 31.0767 93.03 30.6977V30.7377ZM100.31 24.746C100.22 24.746 100.1 24.9058 100.01 25.3552C99.575 27.7385 99.6056 30.1834 100.1 32.5551C100.596 34.6928 101.265 36.7867 102.1 38.8164C103.23 37.2685 103.2 34.6222 103.04 32.9046C102.62 28.5707 100.92 24.776 100.27 24.746H100.31ZM102.49 40.7237L102.01 39.5453C101.605 39.9316 101.105 40.2038 100.56 40.3342C99.1236 40.6062 97.6371 40.3659 96.36 39.6552C93.8208 38.2809 91.7362 36.1993 90.36 33.6636C89.8478 32.7477 89.4834 31.7569 89.28 30.7277C89.16 30.1285 89.28 29.7291 89.63 29.4894C90.21 29.1199 91.34 29.4894 92.46 29.9488C92.0354 28.413 92.0354 26.7911 92.46 25.2553C92.502 25.0955 92.5864 24.9498 92.7043 24.8338C92.8222 24.7178 92.9693 24.6358 93.13 24.5963C94.43 24.2867 96.92 26.6634 97.4 27.1427C97.4257 27.183 97.4369 27.2308 97.4318 27.2783C97.4266 27.3257 97.4053 27.37 97.3715 27.4038C97.3377 27.4376 97.2933 27.4588 97.2458 27.464C97.1982 27.4692 97.1503 27.458 97.11 27.4323C95.79 26.1241 94.01 24.806 93.22 24.9957C93.1287 25.0208 93.0459 25.0703 92.9807 25.139C92.9155 25.2076 92.8703 25.2927 92.85 25.3852C92.4146 26.9563 92.4354 28.6187 92.91 30.1785C93.7772 30.6155 94.6125 31.1127 95.41 31.6664C96.72 32.665 98.7 35.1415 98.67 36.4696C98.6803 36.6083 98.6533 36.7471 98.5918 36.8718C98.5302 36.9965 98.4364 37.1024 98.32 37.1787C98.1442 37.2881 97.9459 37.3567 97.7398 37.3791C97.5338 37.4016 97.3254 37.3775 97.13 37.3085C95.6485 36.62 94.4684 35.4167 93.81 33.9232C93.3003 32.8072 92.8822 31.6517 92.56 30.468C91.4 29.9088 90.27 29.5393 89.82 29.8289C89.63 29.9588 89.57 30.2284 89.65 30.6478C89.8332 31.6363 90.1707 32.5899 90.65 33.4738C91.9904 35.96 94.0358 37.9957 96.53 39.3257C97.7157 39.9963 99.1008 40.2262 100.44 39.9747C100.968 39.8465 101.45 39.5733 101.83 39.1859C100.927 37.0794 100.201 34.9016 99.66 32.675C99.1574 30.2471 99.1235 27.7458 99.56 25.3053C99.69 24.6662 99.93 24.3067 100.29 24.3666C101.49 24.4265 103.09 29.2198 103.44 32.8946C103.73 35.8905 103.32 38.0275 102.28 39.2857C102.46 39.7351 102.65 40.1845 102.83 40.6238C103.37 41.8621 102.99 42.0019 102.49 40.7836V40.7237Z" fill="#C16A8C"/>
</svg>
